<?xml version="1.0" encoding="UTF-8"?>
<svg id="_レイヤー_2" data-name="レイヤー_2" xmlns="http://www.w3.org/2000/svg" viewBox="0 0 137.09 141.83">
  <defs>
    <style>
      .cls-1 {
        fill: #f1f1f1;
      }
    </style>
  </defs>
  <g id="_レイヤー_1-2" data-name="レイヤー_1">
    <path class="cls-1" d="M78.74,18.09l-.45,31.07.18.1,54.76,32.42c2.31,1.55,3.75,4.11,3.86,6.89l-.11,7.79c.11,1.8-1.25,3.34-3.05,3.46-.47.03-.95-.04-1.39-.22l-44.65-13.57-10.13-.15-.39,26.77c-.21,2.9-.81,5.76-1.79,8.5l12.72,7.03c2.34,1.48,3.81,4.01,3.92,6.78l-.03,2.39c-.05,2.52-2.11,4.53-4.63,4.5l-14.13-.2-.26-.02-10.7-.14h-.27s-14.11-.21-14.11-.21c-2.52-.05-4.53-2.11-4.5-4.63l.03-2.39c.2-2.76,1.74-5.25,4.13-6.65l12.91-6.67c-.9-2.76-1.42-5.64-1.55-8.55l.39-26.77-10.13-.13-45.02,12.28c-1.69.61-3.56-.28-4.17-1.97-.16-.45-.22-.92-.18-1.4l.11-7.79c.2-2.78,1.71-5.29,4.06-6.77l55.67-30.83.18-.09.45-31.07C60.55,12.79,64.83-.06,69.87,0c5.04.09,8.94,13.05,8.87,18.09h0Z"/>
  </g>
</svg>