<?xml version="1.0" encoding="UTF-8"?>
<svg id="gateway__svg" data-name="gateway__svg" xmlns="http://www.w3.org/2000/svg" viewBox="0 0 3498.97 176.64">
  <g id="gateway__inner" data-name="gateway__inner">
    <g id="gateway">
      <path d="M0,133.63V43.01C0,14.34,14.34,0,43.01,0h73.98l17.15,13.31v19.97H44.54c-5.12,0-7.68,2.56-7.68,7.68v94.72c0,5.12,2.56,7.68,7.68,7.68h57.86v-40.96h-33.79v-33.28h70.66v107.52H43.01c-28.67,0-43.01-14.34-43.01-43.01Z"/>
      <path d="M159.74,169.73L212.22,0h56.32l52.48,169.73-4.61,6.91h-30.72l-10.75-35.84h-69.12l-10.75,35.84h-30.72l-4.61-6.91ZM215.81,107.52h49.15l-22.53-74.24h-4.1l-22.53,74.24Z"/>
      <path d="M331.77,33.28V0h144.38v33.28h-53.76v143.36h-36.86V33.28h-53.76Z"/>
      <path d="M503.29,176.64V0h120.83v33.28h-83.97v35.84h76.29v33.28h-76.29v40.96h83.97v33.28h-120.83Z"/>
      <path d="M644.09,6.91l5.12-6.91h30.21l28.42,143.36h2.82l30.46-126.46h36.35l30.46,126.46h2.82L839.16,0h30.21l5.12,6.91-34.56,169.73h-58.62l-22.02-93.44-22.02,93.44h-58.62L644.09,6.91Z"/>
      <path d="M886.26,169.73L938.74,0h56.32l52.48,169.73-4.61,6.91h-30.72l-10.75-35.84h-69.12l-10.75,35.84h-30.72l-4.61-6.91ZM942.33,107.52h49.15l-22.53-74.24h-4.1l-22.53,74.24Z"/>
      <path d="M1056.75,6.91l4.35-6.91h31.49l38.4,75.01L1169.39,0h31.49l4.35,6.91-55.81,107.26v62.46h-36.86v-62.46l-55.81-107.26Z"/>
      <path d="M1277.42,33.28V0h144.38v33.28h-53.76v143.36h-36.86V33.28h-53.76Z"/>
      <path d="M1446.38,133.63V43.01c0-28.67,14.34-43.01,43.01-43.01h58.37c28.67,0,43.01,14.34,43.01,43.01v90.62c0,28.67-14.34,43.01-43.01,43.01h-58.37c-28.67,0-43.01-14.34-43.01-43.01ZM1483.25,135.68c0,5.12,2.56,7.68,7.68,7.68h55.3c5.12,0,7.68-2.56,7.68-7.68V40.96c0-5.12-2.56-7.68-7.68-7.68h-55.3c-5.12,0-7.68,2.56-7.68,7.68v94.72Z"/>
      <path d="M1691.63,176.64V0h44.03l49.66,105.98L1834.99,0h44.03v176.64h-36.86v-111.62l-41.47,88.58h-30.72l-41.47-88.58v111.62h-36.86Z"/>
      <path d="M1904.62,6.91l4.35-6.91h31.49l38.4,75.01L2017.26,0h31.49l4.35,6.91-55.81,107.26v62.46h-36.86v-62.46l-55.81-107.26Z"/>
      <path d="M2140.13,176.64V0h86.02c28.67,0,43.01,14.34,43.01,43.01v34.3c0,28.67-14.34,43.01-43.01,43.01h-49.15v56.32h-36.86ZM2177,87.04h47.62c5.12,0,7.68-2.56,7.68-7.68v-38.4c0-5.12-2.56-7.68-7.68-7.68h-47.62v53.76Z"/>
      <path d="M2300.9,133.63V43.01c0-28.67,14.34-43.01,43.01-43.01h58.37c28.67,0,43.01,14.34,43.01,43.01v90.62c0,28.67-14.34,43.01-43.01,43.01h-58.37c-28.67,0-43.01-14.34-43.01-43.01ZM2337.76,135.68c0,5.12,2.56,7.68,7.68,7.68h55.3c5.12,0,7.68-2.56,7.68-7.68V40.96c0-5.12-2.56-7.68-7.68-7.68h-55.3c-5.12,0-7.68,2.56-7.68,7.68v94.72Z"/>
      <path d="M2484.7,176.64V0h86.02c28.67,0,43.01,14.34,43.01,43.01v29.18c0,21.34-7.94,34.65-23.81,39.94l28.93,56.83-4.35,7.68h-31.74l-31.23-61.44h-29.95v61.44h-36.86ZM2521.57,81.92h47.62c5.12,0,7.68-2.56,7.68-7.68v-33.28c0-5.12-2.56-7.68-7.68-7.68h-47.62v48.64Z"/>
      <path d="M2635.74,33.28V0h144.38v33.28h-53.76v143.36h-36.86V33.28h-53.76Z"/>
      <path d="M2807.26,176.64V0h120.83v33.28h-83.97v43.52h76.29v33.28h-76.29v66.56h-36.86Z"/>
      <path d="M2954.21,133.63V43.01c0-28.67,14.34-43.01,43.01-43.01h58.37c28.67,0,43.01,14.34,43.01,43.01v90.62c0,28.67-14.34,43.01-43.01,43.01h-58.37c-28.67,0-43.01-14.34-43.01-43.01ZM2991.07,135.68c0,5.12,2.56,7.68,7.68,7.68h55.3c5.12,0,7.68-2.56,7.68-7.68V40.96c0-5.12-2.56-7.68-7.68-7.68h-55.3c-5.12,0-7.68,2.56-7.68,7.68v94.72Z"/>
      <path d="M3138.01,176.64V0h36.86v143.36h76.29v33.28h-113.15Z"/>
      <path d="M3278.3,176.64V0h36.86v176.64h-36.86Z"/>
      <path d="M3354.59,133.63V43.01c0-28.67,14.34-43.01,43.01-43.01h58.37c28.67,0,43.01,14.34,43.01,43.01v90.62c0,28.67-14.34,43.01-43.01,43.01h-58.37c-28.67,0-43.01-14.34-43.01-43.01ZM3391.45,135.68c0,5.12,2.56,7.68,7.68,7.68h55.3c5.12,0,7.68-2.56,7.68-7.68V40.96c0-5.12-2.56-7.68-7.68-7.68h-55.3c-5.12,0-7.68,2.56-7.68,7.68v94.72Z"/>
    </g>
  </g>
</svg>