<?xml version="1.0" encoding="UTF-8"?>
<svg id="_レイヤー_2" data-name="レイヤー_2" xmlns="http://www.w3.org/2000/svg" viewBox="0 0 1032.35 73.88">
  <defs>
    <style>
      .cls-1, .cls-2 {
        fill: #7d7d7d;
      }

      .cls-3 {
        fill: #fff;
      }

      .cls-3, .cls-4, .cls-2 {
        stroke-miterlimit: 10;
      }

      .cls-3, .cls-2 {
        stroke: #fff;
      }

      .cls-4 {
        fill: none;
        stroke: #7d7d7d;
      }
    </style>
  </defs>
  <g id="_レイヤー_1-2" data-name="レイヤー_1">
    <g>
      <rect class="cls-3" x=".5" y=".5" width="1031.35" height="72.88"/>
      <g id="keepout">
        <g>
          <path class="cls-1" d="M3.54,17.97h7.9v15.53l14.99-15.53h9.81l-15.26,15.59,16.24,23.38h-9.26l-12.53-18.2-3.98,4.03v14.17H3.54V17.97Z"/>
          <path class="cls-1" d="M40.27,17.97h28.67v6.65h-20.76v8.72h18.2v6.48h-18.2v10.52h20.93v6.59h-28.83V17.97Z"/>
          <path class="cls-1" d="M74.01,17.97h28.67v6.65h-20.76v8.72h18.2v6.48h-18.2v10.52h20.93v6.59h-28.83V17.97Z"/>
          <path class="cls-1" d="M107.74,17.97h17.11c4.52,0,7.9,1.31,10.19,3.65,2.18,2.23,3.49,5.29,3.49,8.88,0,7.36-4.85,12.32-13.02,12.32h-9.59v14.12h-8.17V17.97ZM115.92,36.39h8.17c4.14,0,6.32-2.29,6.32-5.83s-2.29-5.72-6.21-5.72h-8.28v11.55Z"/>
        </g>
        <g>
          <path class="cls-1" d="M161.04,37.54c0-11.66,7.3-20.33,18.8-20.33s18.75,8.66,18.75,20.33-7.25,20.27-18.75,20.27-18.8-8.61-18.8-20.27ZM190.53,37.54c0-7.79-3.49-13.84-10.63-13.84s-10.79,6.05-10.79,13.84,3.65,13.79,10.79,13.79,10.63-6.05,10.63-13.79Z"/>
          <path class="cls-1" d="M202.57,44.4v-26.43h7.9v26.43c0,4.03,2.02,6.87,7.3,6.87,5.01,0,7.36-2.94,7.36-6.98v-26.32h7.9v26.43c0,8.34-5.12,13.19-15.1,13.19s-15.37-4.74-15.37-13.19Z"/>
          <path class="cls-1" d="M236.69,17.97h31.34v6.65h-11.72v32.32h-7.9V24.62h-11.72v-6.65Z"/>
        </g>
      </g>
      <g id="danger">
        <path class="cls-4" d="M308.55,32.47v7.86"/>
        <rect class="cls-2" x="307.45" y="48.18" width="2.19" height="2.19"/>
        <path class="cls-4" d="M310.8,17.98l21.61,36.73c.73,1.25.32,2.85-.93,3.58-.4.24-.86.36-1.33.36h-43.21c-1.45,0-2.62-1.17-2.62-2.62,0-.47.12-.93.36-1.33l21.61-36.73c.73-1.25,2.34-1.66,3.58-.93.38.23.7.55.93.93Z"/>
      </g>
      <g id="keepout-2" data-name="keepout">
        <g>
          <path class="cls-1" d="M356.53,17.97h7.9v15.53l14.99-15.53h9.81l-15.26,15.59,16.24,23.38h-9.26l-12.53-18.2-3.98,4.03v14.17h-7.9V17.97Z"/>
          <path class="cls-1" d="M393.27,17.97h28.67v6.65h-20.76v8.72h18.2v6.48h-18.2v10.52h20.93v6.59h-28.83V17.97Z"/>
          <path class="cls-1" d="M427,17.97h28.67v6.65h-20.76v8.72h18.2v6.48h-18.2v10.52h20.93v6.59h-28.83V17.97Z"/>
          <path class="cls-1" d="M460.74,17.97h17.11c4.52,0,7.9,1.31,10.19,3.65,2.18,2.23,3.49,5.29,3.49,8.88,0,7.36-4.85,12.32-13.02,12.32h-9.59v14.12h-8.17V17.97ZM468.91,36.39h8.17c4.14,0,6.32-2.29,6.32-5.83s-2.29-5.72-6.21-5.72h-8.28v11.55Z"/>
        </g>
        <g>
          <path class="cls-1" d="M514.04,37.54c0-11.66,7.3-20.33,18.8-20.33s18.75,8.66,18.75,20.33-7.25,20.27-18.75,20.27-18.8-8.61-18.8-20.27ZM543.52,37.54c0-7.79-3.49-13.84-10.63-13.84s-10.79,6.05-10.79,13.84,3.65,13.79,10.79,13.79,10.63-6.05,10.63-13.79Z"/>
          <path class="cls-1" d="M555.57,44.4v-26.43h7.9v26.43c0,4.03,2.02,6.87,7.3,6.87,5.01,0,7.36-2.94,7.36-6.98v-26.32h7.9v26.43c0,8.34-5.12,13.19-15.1,13.19s-15.37-4.74-15.37-13.19Z"/>
          <path class="cls-1" d="M589.69,17.97h31.34v6.65h-11.72v32.32h-7.9V24.62h-11.72v-6.65Z"/>
        </g>
      </g>
      <g id="danger-2" data-name="danger">
        <path class="cls-4" d="M661.54,32.47v7.86"/>
        <rect class="cls-2" x="660.45" y="47.56" width="2.19" height="2.19"/>
        <path class="cls-4" d="M663.8,17.98l21.61,36.73c.73,1.25.32,2.85-.93,3.58-.4.24-.86.36-1.33.36h-43.21c-1.45,0-2.62-1.17-2.62-2.62,0-.47.12-.93.36-1.33l21.61-36.73c.73-1.25,2.34-1.66,3.58-.93.38.23.7.55.93.93Z"/>
      </g>
      <g id="keepout-3" data-name="keepout">
        <g>
          <path class="cls-1" d="M702.61,17.97h7.9v15.53l14.99-15.53h9.81l-15.26,15.59,16.24,23.38h-9.27l-12.53-18.2-3.98,4.03v14.17h-7.9V17.97Z"/>
          <path class="cls-1" d="M739.34,17.97h28.67v6.65h-20.76v8.72h18.2v6.48h-18.2v10.52h20.93v6.59h-28.83V17.97Z"/>
          <path class="cls-1" d="M773.08,17.97h28.67v6.65h-20.76v8.72h18.2v6.48h-18.2v10.52h20.93v6.59h-28.83V17.97Z"/>
          <path class="cls-1" d="M806.81,17.97h17.11c4.52,0,7.9,1.31,10.19,3.65,2.18,2.23,3.49,5.29,3.49,8.88,0,7.36-4.85,12.32-13.02,12.32h-9.59v14.12h-8.17V17.97ZM814.99,36.39h8.17c4.14,0,6.32-2.29,6.32-5.83s-2.29-5.72-6.21-5.72h-8.28v11.55Z"/>
        </g>
        <g>
          <path class="cls-1" d="M860.12,37.54c0-11.66,7.3-20.33,18.8-20.33s18.75,8.66,18.75,20.33-7.25,20.27-18.75,20.27-18.8-8.61-18.8-20.27ZM889.6,37.54c0-7.79-3.49-13.84-10.63-13.84s-10.79,6.05-10.79,13.84,3.65,13.79,10.79,13.79,10.63-6.05,10.63-13.79Z"/>
          <path class="cls-1" d="M901.64,44.4v-26.43h7.9v26.43c0,4.03,2.02,6.87,7.3,6.87,5.01,0,7.36-2.94,7.36-6.98v-26.32h7.9v26.43c0,8.34-5.12,13.19-15.1,13.19s-15.37-4.74-15.37-13.19Z"/>
          <path class="cls-1" d="M935.76,17.97h31.34v6.65h-11.72v32.32h-7.9V24.62h-11.72v-6.65Z"/>
        </g>
      </g>
      <g id="danger-3" data-name="danger">
        <path class="cls-4" d="M1007.62,32.47v7.86"/>
        <rect class="cls-2" x="1006.52" y="47.08" width="2.19" height="2.19"/>
        <path class="cls-4" d="M1009.88,17.98l21.61,36.73c.73,1.25.32,2.85-.93,3.58-.4.24-.86.36-1.33.36h-43.21c-1.45,0-2.62-1.17-2.62-2.62,0-.47.12-.93.36-1.33l21.61-36.73c.73-1.25,2.34-1.66,3.58-.93.38.23.7.55.93.93Z"/>
      </g>
      <g>
        <polygon class="cls-1" points="18.18 .5 8.36 10.2 11.3 10.2 21.12 .5 18.18 .5"/>
        <polygon class="cls-1" points="10.32 .5 .5 10.2 3.45 10.2 13.27 .5 10.32 .5"/>
        <polygon class="cls-1" points="42.73 .5 32.91 10.2 35.86 10.2 45.68 .5 42.73 .5"/>
        <polygon class="cls-1" points="27.02 .5 17.2 10.2 20.14 10.2 29.96 .5 27.02 .5"/>
        <polygon class="cls-1" points="34.87 .5 25.05 10.2 28 10.2 37.82 .5 34.87 .5"/>
        <polygon class="cls-1" points="58.88 .5 49.06 10.2 52.01 10.2 61.83 .5 58.88 .5"/>
        <polygon class="cls-1" points="51.03 .5 41.2 10.2 44.15 10.2 53.97 .5 51.03 .5"/>
        <polygon class="cls-1" points="83.43 .5 73.61 10.2 76.56 10.2 86.38 .5 83.43 .5"/>
        <polygon class="cls-1" points="67.72 .5 57.9 10.2 60.85 10.2 70.67 .5 67.72 .5"/>
        <polygon class="cls-1" points="75.58 .5 65.76 10.2 68.7 10.2 78.52 .5 75.58 .5"/>
        <polygon class="cls-1" points="98.85 .5 89.03 10.2 91.97 10.2 101.8 .5 98.85 .5"/>
        <polygon class="cls-1" points="90.99 .5 81.17 10.2 84.12 10.2 93.94 .5 90.99 .5"/>
        <polygon class="cls-1" points="123.4 .5 113.58 10.2 116.53 10.2 126.35 .5 123.4 .5"/>
        <polygon class="cls-1" points="107.69 .5 97.87 10.2 100.81 10.2 110.63 .5 107.69 .5"/>
        <polygon class="cls-1" points="115.54 .5 105.72 10.2 108.67 10.2 118.49 .5 115.54 .5"/>
        <polygon class="cls-1" points="139.55 .5 129.73 10.2 132.68 10.2 142.5 .5 139.55 .5"/>
        <polygon class="cls-1" points="131.7 .5 121.88 10.2 124.82 10.2 134.64 .5 131.7 .5"/>
        <polygon class="cls-1" points="164.11 .5 154.28 10.2 157.23 10.2 167.05 .5 164.11 .5"/>
        <polygon class="cls-1" points="148.39 .5 138.57 10.2 141.52 10.2 151.34 .5 148.39 .5"/>
        <polygon class="cls-1" points="156.25 .5 146.43 10.2 149.37 10.2 159.2 .5 156.25 .5"/>
        <polygon class="cls-1" points="180.07 .5 170.25 10.2 173.2 10.2 183.02 .5 180.07 .5"/>
        <polygon class="cls-1" points="172.22 .5 162.39 10.2 165.34 10.2 175.16 .5 172.22 .5"/>
        <polygon class="cls-1" points="204.62 .5 194.8 10.2 197.75 10.2 207.57 .5 204.62 .5"/>
        <polygon class="cls-1" points="188.91 .5 179.09 10.2 182.04 10.2 191.86 .5 188.91 .5"/>
        <polygon class="cls-1" points="196.77 .5 186.95 10.2 189.89 10.2 199.71 .5 196.77 .5"/>
        <polygon class="cls-1" points="220.78 .5 210.96 10.2 213.9 10.2 223.72 .5 220.78 .5"/>
        <polygon class="cls-1" points="212.92 .5 203.1 10.2 206.05 10.2 215.87 .5 212.92 .5"/>
        <polygon class="cls-1" points="245.33 .5 235.51 10.2 238.45 10.2 248.28 .5 245.33 .5"/>
        <polygon class="cls-1" points="229.62 .5 219.79 10.2 222.74 10.2 232.56 .5 229.62 .5"/>
        <polygon class="cls-1" points="237.47 .5 227.65 10.2 230.6 10.2 240.42 .5 237.47 .5"/>
      </g>
      <g>
        <polygon class="cls-1" points="260.91 .5 251.09 10.2 254.03 10.2 263.85 .5 260.91 .5"/>
        <polygon class="cls-1" points="253.05 .5 243.23 10.2 246.17 10.2 256 .5 253.05 .5"/>
        <polygon class="cls-1" points="285.46 .5 275.64 10.2 278.58 10.2 288.4 .5 285.46 .5"/>
        <polygon class="cls-1" points="269.75 .5 259.92 10.2 262.87 10.2 272.69 .5 269.75 .5"/>
        <polygon class="cls-1" points="277.6 .5 267.78 10.2 270.73 10.2 280.55 .5 277.6 .5"/>
        <polygon class="cls-1" points="301.61 .5 291.79 10.2 294.74 10.2 304.56 .5 301.61 .5"/>
        <polygon class="cls-1" points="293.75 .5 283.93 10.2 286.88 10.2 296.7 .5 293.75 .5"/>
        <polygon class="cls-1" points="326.16 .5 316.34 10.2 319.29 10.2 329.11 .5 326.16 .5"/>
        <polygon class="cls-1" points="310.45 .5 300.63 10.2 303.58 10.2 313.4 .5 310.45 .5"/>
        <polygon class="cls-1" points="318.31 .5 308.49 10.2 311.43 10.2 321.25 .5 318.31 .5"/>
        <polygon class="cls-1" points="341.58 .5 331.76 10.2 334.7 10.2 344.52 .5 341.58 .5"/>
        <polygon class="cls-1" points="333.72 .5 323.9 10.2 326.85 10.2 336.67 .5 333.72 .5"/>
        <polygon class="cls-1" points="366.13 .5 356.31 10.2 359.26 10.2 369.08 .5 366.13 .5"/>
        <polygon class="cls-1" points="350.42 .5 340.6 10.2 343.54 10.2 353.36 .5 350.42 .5"/>
        <polygon class="cls-1" points="358.27 .5 348.45 10.2 351.4 10.2 361.22 .5 358.27 .5"/>
        <polygon class="cls-1" points="382.28 .5 372.46 10.2 375.41 10.2 385.23 .5 382.28 .5"/>
        <polygon class="cls-1" points="374.43 .5 364.6 10.2 367.55 10.2 377.37 .5 374.43 .5"/>
        <polygon class="cls-1" points="406.83 .5 397.01 10.2 399.96 10.2 409.78 .5 406.83 .5"/>
        <polygon class="cls-1" points="391.12 .5 381.3 10.2 384.25 10.2 394.07 .5 391.12 .5"/>
        <polygon class="cls-1" points="398.98 .5 389.16 10.2 392.1 10.2 401.92 .5 398.98 .5"/>
        <polygon class="cls-1" points="422.8 .5 412.98 10.2 415.93 10.2 425.75 .5 422.8 .5"/>
        <polygon class="cls-1" points="414.94 .5 405.12 10.2 408.07 10.2 417.89 .5 414.94 .5"/>
        <polygon class="cls-1" points="447.35 .5 437.53 10.2 440.48 10.2 450.3 .5 447.35 .5"/>
        <polygon class="cls-1" points="431.64 .5 421.82 10.2 424.77 10.2 434.59 .5 431.64 .5"/>
        <polygon class="cls-1" points="439.5 .5 429.68 10.2 432.62 10.2 442.44 .5 439.5 .5"/>
        <polygon class="cls-1" points="463.51 .5 453.68 10.2 456.63 10.2 466.45 .5 463.51 .5"/>
        <polygon class="cls-1" points="455.65 .5 445.83 10.2 448.77 10.2 458.6 .5 455.65 .5"/>
        <polygon class="cls-1" points="488.06 .5 478.24 10.2 481.18 10.2 491 .5 488.06 .5"/>
        <polygon class="cls-1" points="472.34 .5 462.52 10.2 465.47 10.2 475.29 .5 472.34 .5"/>
        <polygon class="cls-1" points="480.2 .5 470.38 10.2 473.33 10.2 483.15 .5 480.2 .5"/>
      </g>
      <g>
        <polygon class="cls-1" points="503.91 .5 494.09 10.2 497.04 10.2 506.86 .5 503.91 .5"/>
        <polygon class="cls-1" points="496.05 .5 486.23 10.2 489.18 10.2 499 .5 496.05 .5"/>
        <polygon class="cls-1" points="528.46 .5 518.64 10.2 521.59 10.2 531.41 .5 528.46 .5"/>
        <polygon class="cls-1" points="512.75 .5 502.93 10.2 505.87 10.2 515.7 .5 512.75 .5"/>
        <polygon class="cls-1" points="520.61 .5 510.79 10.2 513.73 10.2 523.55 .5 520.61 .5"/>
        <polygon class="cls-1" points="544.62 .5 534.79 10.2 537.74 10.2 547.56 .5 544.62 .5"/>
        <polygon class="cls-1" points="536.76 .5 526.94 10.2 529.88 10.2 539.7 .5 536.76 .5"/>
        <polygon class="cls-1" points="569.17 .5 559.35 10.2 562.29 10.2 572.11 .5 569.17 .5"/>
        <polygon class="cls-1" points="553.45 .5 543.63 10.2 546.58 10.2 556.4 .5 553.45 .5"/>
        <polygon class="cls-1" points="561.31 .5 551.49 10.2 554.44 10.2 564.26 .5 561.31 .5"/>
        <polygon class="cls-1" points="584.58 .5 574.76 10.2 577.71 10.2 587.53 .5 584.58 .5"/>
        <polygon class="cls-1" points="576.73 .5 566.9 10.2 569.85 10.2 579.67 .5 576.73 .5"/>
        <polygon class="cls-1" points="609.13 .5 599.31 10.2 602.26 10.2 612.08 .5 609.13 .5"/>
        <polygon class="cls-1" points="593.42 .5 583.6 10.2 586.55 10.2 596.37 .5 593.42 .5"/>
        <polygon class="cls-1" points="601.28 .5 591.46 10.2 594.4 10.2 604.22 .5 601.28 .5"/>
        <polygon class="cls-1" points="625.29 .5 615.47 10.2 618.41 10.2 628.23 .5 625.29 .5"/>
        <polygon class="cls-1" points="617.43 .5 607.61 10.2 610.56 10.2 620.38 .5 617.43 .5"/>
        <polygon class="cls-1" points="649.84 .5 640.02 10.2 642.96 10.2 652.79 .5 649.84 .5"/>
        <polygon class="cls-1" points="634.13 .5 624.3 10.2 627.25 10.2 637.07 .5 634.13 .5"/>
        <polygon class="cls-1" points="641.98 .5 632.16 10.2 635.11 10.2 644.93 .5 641.98 .5"/>
        <polygon class="cls-1" points="665.81 .5 655.98 10.2 658.93 10.2 668.75 .5 665.81 .5"/>
        <polygon class="cls-1" points="657.95 .5 648.13 10.2 651.07 10.2 660.89 .5 657.95 .5"/>
        <polygon class="cls-1" points="690.36 .5 680.54 10.2 683.48 10.2 693.3 .5 690.36 .5"/>
        <polygon class="cls-1" points="674.64 .5 664.82 10.2 667.77 10.2 677.59 .5 674.64 .5"/>
        <polygon class="cls-1" points="682.5 .5 672.68 10.2 675.63 10.2 685.45 .5 682.5 .5"/>
        <polygon class="cls-1" points="706.51 .5 696.69 10.2 699.64 10.2 709.46 .5 706.51 .5"/>
        <polygon class="cls-1" points="698.65 .5 688.83 10.2 691.78 10.2 701.6 .5 698.65 .5"/>
        <polygon class="cls-1" points="731.06 .5 721.24 10.2 724.19 10.2 734.01 .5 731.06 .5"/>
        <polygon class="cls-1" points="715.35 .5 705.53 10.2 708.47 10.2 718.29 .5 715.35 .5"/>
        <polygon class="cls-1" points="723.21 .5 713.38 10.2 716.33 10.2 726.15 .5 723.21 .5"/>
        <polygon class="cls-1" points="738.88 .5 729.06 10.2 732 10.2 741.82 .5 738.88 .5"/>
        <polygon class="cls-1" points="754.84 .5 745.02 10.2 747.97 10.2 757.79 .5 754.84 .5"/>
        <polygon class="cls-1" points="746.99 .5 737.17 10.2 740.11 10.2 749.93 .5 746.99 .5"/>
        <polygon class="cls-1" points="779.4 .5 769.58 10.2 772.52 10.2 782.34 .5 779.4 .5"/>
        <polygon class="cls-1" points="763.68 .5 753.86 10.2 756.81 10.2 766.63 .5 763.68 .5"/>
        <polygon class="cls-1" points="771.54 .5 761.72 10.2 764.66 10.2 774.49 .5 771.54 .5"/>
        <polygon class="cls-1" points="795.55 .5 785.73 10.2 788.67 10.2 798.49 .5 795.55 .5"/>
        <polygon class="cls-1" points="787.69 .5 777.87 10.2 780.82 10.2 790.64 .5 787.69 .5"/>
        <polygon class="cls-1" points="820.1 .5 810.28 10.2 813.23 10.2 823.05 .5 820.1 .5"/>
        <polygon class="cls-1" points="804.39 .5 794.57 10.2 797.51 10.2 807.33 .5 804.39 .5"/>
        <polygon class="cls-1" points="812.24 .5 802.42 10.2 805.37 10.2 815.19 .5 812.24 .5"/>
        <polygon class="cls-1" points="835.4 .5 825.58 10.2 828.53 10.2 838.35 .5 835.4 .5"/>
        <polygon class="cls-1" points="827.55 .5 817.73 10.2 820.67 10.2 830.49 .5 827.55 .5"/>
        <polygon class="cls-1" points="859.96 .5 850.13 10.2 853.08 10.2 862.9 .5 859.96 .5"/>
        <polygon class="cls-1" points="844.24 .5 834.42 10.2 837.37 10.2 847.19 .5 844.24 .5"/>
        <polygon class="cls-1" points="852.1 .5 842.28 10.2 845.22 10.2 855.05 .5 852.1 .5"/>
        <polygon class="cls-1" points="876.11 .5 866.29 10.2 869.23 10.2 879.05 .5 876.11 .5"/>
        <polygon class="cls-1" points="868.25 .5 858.43 10.2 861.38 10.2 871.2 .5 868.25 .5"/>
        <polygon class="cls-1" points="900.66 .5 890.84 10.2 893.79 10.2 903.61 .5 900.66 .5"/>
        <polygon class="cls-1" points="884.95 .5 875.13 10.2 878.07 10.2 887.89 .5 884.95 .5"/>
        <polygon class="cls-1" points="892.8 .5 882.98 10.2 885.93 10.2 895.75 .5 892.8 .5"/>
        <polygon class="cls-1" points="908.71 .5 898.89 10.2 901.83 10.2 911.66 .5 908.71 .5"/>
        <polygon class="cls-1" points="924.86 .5 915.04 10.2 917.99 10.2 927.81 .5 924.86 .5"/>
        <polygon class="cls-1" points="917 .5 907.18 10.2 910.13 10.2 919.95 .5 917 .5"/>
        <polygon class="cls-1" points="949.41 .5 939.59 10.2 942.54 10.2 952.36 .5 949.41 .5"/>
        <polygon class="cls-1" points="933.7 .5 923.88 10.2 926.83 10.2 936.65 .5 933.7 .5"/>
        <polygon class="cls-1" points="941.56 .5 931.74 10.2 934.68 10.2 944.5 .5 941.56 .5"/>
        <polygon class="cls-1" points="957.08 .5 947.26 10.2 950.21 10.2 960.03 .5 957.08 .5"/>
        <polygon class="cls-1" points="980.46 .5 970.64 10.2 973.59 10.2 983.41 .5 980.46 .5"/>
        <polygon class="cls-1" points="964.75 .5 954.93 10.2 957.87 10.2 967.69 .5 964.75 .5"/>
        <polygon class="cls-1" points="972.61 .5 962.78 10.2 965.73 10.2 975.55 .5 972.61 .5"/>
        <polygon class="cls-1" points="996.47 .5 986.65 10.2 989.59 10.2 999.41 .5 996.47 .5"/>
        <polygon class="cls-1" points="988.61 .5 978.79 10.2 981.74 10.2 991.56 .5 988.61 .5"/>
        <polygon class="cls-1" points="1004.14 .5 994.32 10.2 997.26 10.2 1007.08 .5 1004.14 .5"/>
        <polygon class="cls-1" points="1027.52 .5 1017.7 10.2 1020.64 10.2 1030.46 .5 1027.52 .5"/>
        <polygon class="cls-1" points="1011.8 .5 1001.98 10.2 1004.93 10.2 1014.75 .5 1011.8 .5"/>
        <polygon class="cls-1" points="1019.66 .5 1009.84 10.2 1012.79 10.2 1022.61 .5 1019.66 .5"/>
      </g>
      <g>
        <polygon class="cls-1" points="18.45 63.68 8.63 73.38 11.58 73.38 21.4 63.68 18.45 63.68"/>
        <polygon class="cls-1" points="10.59 63.68 .77 73.38 3.72 73.38 13.54 63.68 10.59 63.68"/>
        <polygon class="cls-1" points="43 63.68 33.18 73.38 36.13 73.38 45.95 63.68 43 63.68"/>
        <polygon class="cls-1" points="27.29 63.68 17.47 73.38 20.41 73.38 30.24 63.68 27.29 63.68"/>
        <polygon class="cls-1" points="35.15 63.68 25.32 73.38 28.27 73.38 38.09 63.68 35.15 63.68"/>
        <polygon class="cls-1" points="59.15 63.68 49.33 73.38 52.28 73.38 62.1 63.68 59.15 63.68"/>
        <polygon class="cls-1" points="51.3 63.68 41.48 73.38 44.42 73.38 54.24 63.68 51.3 63.68"/>
        <polygon class="cls-1" points="83.71 63.68 73.89 73.38 76.83 73.38 86.65 63.68 83.71 63.68"/>
        <polygon class="cls-1" points="67.99 63.68 58.17 73.38 61.12 73.38 70.94 63.68 67.99 63.68"/>
        <polygon class="cls-1" points="75.85 63.68 66.03 73.38 68.98 73.38 78.8 63.68 75.85 63.68"/>
        <polygon class="cls-1" points="99.12 63.68 89.3 73.38 92.25 73.38 102.07 63.68 99.12 63.68"/>
        <polygon class="cls-1" points="91.26 63.68 81.44 73.38 84.39 73.38 94.21 63.68 91.26 63.68"/>
        <polygon class="cls-1" points="123.67 63.68 113.85 73.38 116.8 73.38 126.62 63.68 123.67 63.68"/>
        <polygon class="cls-1" points="107.96 63.68 98.14 73.38 101.09 73.38 110.91 63.68 107.96 63.68"/>
        <polygon class="cls-1" points="115.82 63.68 106 73.38 108.94 73.38 118.76 63.68 115.82 63.68"/>
        <polygon class="cls-1" points="139.83 63.68 130.01 73.38 132.95 73.38 142.77 63.68 139.83 63.68"/>
        <polygon class="cls-1" points="131.97 63.68 122.15 73.38 125.09 73.38 134.92 63.68 131.97 63.68"/>
        <polygon class="cls-1" points="164.38 63.68 154.56 73.38 157.5 73.38 167.32 63.68 164.38 63.68"/>
        <polygon class="cls-1" points="148.66 63.68 138.84 73.38 141.79 73.38 151.61 63.68 148.66 63.68"/>
        <polygon class="cls-1" points="156.52 63.68 146.7 73.38 149.65 73.38 159.47 63.68 156.52 63.68"/>
        <polygon class="cls-1" points="180.34 63.68 170.52 73.38 173.47 73.38 183.29 63.68 180.34 63.68"/>
        <polygon class="cls-1" points="172.49 63.68 162.67 73.38 165.61 73.38 175.43 63.68 172.49 63.68"/>
        <polygon class="cls-1" points="204.9 63.68 195.08 73.38 198.02 73.38 207.84 63.68 204.9 63.68"/>
        <polygon class="cls-1" points="189.18 63.68 179.36 73.38 182.31 73.38 192.13 63.68 189.18 63.68"/>
        <polygon class="cls-1" points="197.04 63.68 187.22 73.38 190.17 73.38 199.99 63.68 197.04 63.68"/>
        <polygon class="cls-1" points="221.05 63.68 211.23 73.38 214.17 73.38 224 63.68 221.05 63.68"/>
        <polygon class="cls-1" points="213.19 63.68 203.37 73.38 206.32 73.38 216.14 63.68 213.19 63.68"/>
        <polygon class="cls-1" points="245.6 63.68 235.78 73.38 238.73 73.38 248.55 63.68 245.6 63.68"/>
        <polygon class="cls-1" points="229.89 63.68 220.07 73.38 223.01 73.38 232.83 63.68 229.89 63.68"/>
        <polygon class="cls-1" points="237.74 63.68 227.92 73.38 230.87 73.38 240.69 63.68 237.74 63.68"/>
      </g>
      <g>
        <polygon class="cls-1" points="261.56 63.68 251.74 73.38 254.69 73.38 264.51 63.68 261.56 63.68"/>
        <polygon class="cls-1" points="253.7 63.68 243.88 73.38 246.83 73.38 256.65 63.68 253.7 63.68"/>
        <polygon class="cls-1" points="286.11 63.68 276.29 73.38 279.24 73.38 289.06 63.68 286.11 63.68"/>
        <polygon class="cls-1" points="270.4 63.68 260.58 73.38 263.53 73.38 273.35 63.68 270.4 63.68"/>
        <polygon class="cls-1" points="278.26 63.68 268.44 73.38 271.38 73.38 281.2 63.68 278.26 63.68"/>
        <polygon class="cls-1" points="302.27 63.68 292.44 73.38 295.39 73.38 305.21 63.68 302.27 63.68"/>
        <polygon class="cls-1" points="294.41 63.68 284.59 73.38 287.53 73.38 297.36 63.68 294.41 63.68"/>
        <polygon class="cls-1" points="326.82 63.68 317 73.38 319.94 73.38 329.76 63.68 326.82 63.68"/>
        <polygon class="cls-1" points="311.1 63.68 301.28 73.38 304.23 73.38 314.05 63.68 311.1 63.68"/>
        <polygon class="cls-1" points="318.96 63.68 309.14 73.38 312.09 73.38 321.91 63.68 318.96 63.68"/>
        <polygon class="cls-1" points="342.23 63.68 332.41 73.38 335.36 73.38 345.18 63.68 342.23 63.68"/>
        <polygon class="cls-1" points="334.38 63.68 324.55 73.38 327.5 73.38 337.32 63.68 334.38 63.68"/>
        <polygon class="cls-1" points="366.78 63.68 356.96 73.38 359.91 73.38 369.73 63.68 366.78 63.68"/>
        <polygon class="cls-1" points="351.07 63.68 341.25 73.38 344.2 73.38 354.02 63.68 351.07 63.68"/>
        <polygon class="cls-1" points="358.93 63.68 349.11 73.38 352.05 73.38 361.87 63.68 358.93 63.68"/>
        <polygon class="cls-1" points="382.94 63.68 373.12 73.38 376.06 73.38 385.88 63.68 382.94 63.68"/>
        <polygon class="cls-1" points="375.08 63.68 365.26 73.38 368.21 73.38 378.03 63.68 375.08 63.68"/>
        <polygon class="cls-1" points="407.49 63.68 397.67 73.38 400.61 73.38 410.44 63.68 407.49 63.68"/>
        <polygon class="cls-1" points="391.78 63.68 381.95 73.38 384.9 73.38 394.72 63.68 391.78 63.68"/>
        <polygon class="cls-1" points="399.63 63.68 389.81 73.38 392.76 73.38 402.58 63.68 399.63 63.68"/>
        <polygon class="cls-1" points="423.46 63.68 413.63 73.38 416.58 73.38 426.4 63.68 423.46 63.68"/>
        <polygon class="cls-1" points="415.6 63.68 405.78 73.38 408.72 73.38 418.54 63.68 415.6 63.68"/>
        <polygon class="cls-1" points="448.01 63.68 438.19 73.38 441.13 73.38 450.95 63.68 448.01 63.68"/>
        <polygon class="cls-1" points="432.29 63.68 422.47 73.38 425.42 73.38 435.24 63.68 432.29 63.68"/>
        <polygon class="cls-1" points="440.15 63.68 430.33 73.38 433.28 73.38 443.1 63.68 440.15 63.68"/>
        <polygon class="cls-1" points="464.16 63.68 454.34 73.38 457.29 73.38 467.11 63.68 464.16 63.68"/>
        <polygon class="cls-1" points="456.3 63.68 446.48 73.38 449.43 73.38 459.25 63.68 456.3 63.68"/>
        <polygon class="cls-1" points="488.71 63.68 478.89 73.38 481.84 73.38 491.66 63.68 488.71 63.68"/>
        <polygon class="cls-1" points="473 63.68 463.18 73.38 466.12 73.38 475.95 63.68 473 63.68"/>
        <polygon class="cls-1" points="480.86 63.68 471.03 73.38 473.98 73.38 483.8 63.68 480.86 63.68"/>
      </g>
      <g>
        <polygon class="cls-1" points="504.44 63.68 494.61 73.38 497.56 73.38 507.38 63.68 504.44 63.68"/>
        <polygon class="cls-1" points="496.58 63.68 486.76 73.38 489.7 73.38 499.53 63.68 496.58 63.68"/>
        <polygon class="cls-1" points="527.81 63.68 517.99 73.38 520.94 73.38 530.76 63.68 527.81 63.68"/>
        <polygon class="cls-1" points="512.1 63.68 502.28 73.38 505.23 73.38 515.05 63.68 512.1 63.68"/>
        <polygon class="cls-1" points="519.96 63.68 510.14 73.38 513.08 73.38 522.9 63.68 519.96 63.68"/>
        <polygon class="cls-1" points="543.97 63.68 534.15 73.38 537.09 73.38 546.91 63.68 543.97 63.68"/>
        <polygon class="cls-1" points="536.11 63.68 526.29 73.38 529.24 73.38 539.06 63.68 536.11 63.68"/>
        <polygon class="cls-1" points="568.52 63.68 558.7 73.38 561.64 73.38 571.47 63.68 568.52 63.68"/>
        <polygon class="cls-1" points="552.81 63.68 542.98 73.38 545.93 73.38 555.75 63.68 552.81 63.68"/>
        <polygon class="cls-1" points="560.66 63.68 550.84 73.38 553.79 73.38 563.61 63.68 560.66 63.68"/>
        <polygon class="cls-1" points="583.93 63.68 574.11 73.38 577.06 73.38 586.88 63.68 583.93 63.68"/>
        <polygon class="cls-1" points="576.08 63.68 566.26 73.38 569.2 73.38 579.02 63.68 576.08 63.68"/>
        <polygon class="cls-1" points="608.49 63.68 598.66 73.38 601.61 73.38 611.43 63.68 608.49 63.68"/>
        <polygon class="cls-1" points="592.77 63.68 582.95 73.38 585.9 73.38 595.72 63.68 592.77 63.68"/>
        <polygon class="cls-1" points="600.63 63.68 590.81 73.38 593.75 73.38 603.57 63.68 600.63 63.68"/>
        <polygon class="cls-1" points="624.64 63.68 614.82 73.38 617.76 73.38 627.58 63.68 624.64 63.68"/>
        <polygon class="cls-1" points="616.78 63.68 606.96 73.38 609.91 73.38 619.73 63.68 616.78 63.68"/>
        <polygon class="cls-1" points="649.19 63.68 639.37 73.38 642.32 73.38 652.14 63.68 649.19 63.68"/>
        <polygon class="cls-1" points="633.48 63.68 623.66 73.38 626.6 73.38 636.42 63.68 633.48 63.68"/>
        <polygon class="cls-1" points="641.33 63.68 631.51 73.38 634.46 73.38 644.28 63.68 641.33 63.68"/>
        <polygon class="cls-1" points="665.16 63.68 655.34 73.38 658.28 73.38 668.1 63.68 665.16 63.68"/>
        <polygon class="cls-1" points="657.3 63.68 647.48 73.38 650.42 73.38 660.25 63.68 657.3 63.68"/>
        <polygon class="cls-1" points="689.71 63.68 679.89 73.38 682.83 73.38 692.65 63.68 689.71 63.68"/>
        <polygon class="cls-1" points="674 63.68 664.17 73.38 667.12 73.38 676.94 63.68 674 63.68"/>
        <polygon class="cls-1" points="681.85 63.68 672.03 73.38 674.98 73.38 684.8 63.68 681.85 63.68"/>
        <polygon class="cls-1" points="705.86 63.68 696.04 73.38 698.99 73.38 708.81 63.68 705.86 63.68"/>
        <polygon class="cls-1" points="698 63.68 688.18 73.38 691.13 73.38 700.95 63.68 698 63.68"/>
        <polygon class="cls-1" points="730.41 63.68 720.59 73.38 723.54 73.38 733.36 63.68 730.41 63.68"/>
        <polygon class="cls-1" points="714.7 63.68 704.88 73.38 707.83 73.38 717.65 63.68 714.7 63.68"/>
        <polygon class="cls-1" points="722.56 63.68 712.74 73.38 715.68 73.38 725.5 63.68 722.56 63.68"/>
        <polygon class="cls-1" points="746.64 63.68 736.82 73.38 739.77 73.38 749.59 63.68 746.64 63.68"/>
        <polygon class="cls-1" points="738.78 63.68 728.96 73.38 731.91 73.38 741.73 63.68 738.78 63.68"/>
        <polygon class="cls-1" points="771.19 63.68 761.37 73.38 764.32 73.38 774.14 63.68 771.19 63.68"/>
        <polygon class="cls-1" points="755.48 63.68 745.66 73.38 748.61 73.38 758.43 63.68 755.48 63.68"/>
        <polygon class="cls-1" points="763.34 63.68 753.52 73.38 756.46 73.38 766.28 63.68 763.34 63.68"/>
        <polygon class="cls-1" points="787.35 63.68 777.53 73.38 780.47 73.38 790.29 63.68 787.35 63.68"/>
        <polygon class="cls-1" points="779.49 63.68 769.67 73.38 772.61 73.38 782.44 63.68 779.49 63.68"/>
        <polygon class="cls-1" points="811.9 63.68 802.08 73.38 805.02 73.38 814.84 63.68 811.9 63.68"/>
        <polygon class="cls-1" points="796.18 63.68 786.36 73.38 789.31 73.38 799.13 63.68 796.18 63.68"/>
        <polygon class="cls-1" points="804.04 63.68 794.22 73.38 797.17 73.38 806.99 63.68 804.04 63.68"/>
        <polygon class="cls-1" points="820.46 63.68 810.64 73.38 813.59 73.38 823.41 63.68 820.46 63.68"/>
        <polygon class="cls-1" points="836.69 63.68 826.87 73.38 829.82 73.38 839.64 63.68 836.69 63.68"/>
        <polygon class="cls-1" points="828.83 63.68 819.01 73.38 821.96 73.38 831.78 63.68 828.83 63.68"/>
        <polygon class="cls-1" points="861.24 63.68 851.42 73.38 854.37 73.38 864.19 63.68 861.24 63.68"/>
        <polygon class="cls-1" points="845.53 63.68 835.71 73.38 838.65 73.38 848.48 63.68 845.53 63.68"/>
        <polygon class="cls-1" points="853.39 63.68 843.56 73.38 846.51 73.38 856.33 63.68 853.39 63.68"/>
        <polygon class="cls-1" points="877.39 63.68 867.57 73.38 870.52 73.38 880.34 63.68 877.39 63.68"/>
        <polygon class="cls-1" points="869.54 63.68 859.72 73.38 862.66 73.38 872.48 63.68 869.54 63.68"/>
        <polygon class="cls-1" points="901.95 63.68 892.13 73.38 895.07 73.38 904.89 63.68 901.95 63.68"/>
        <polygon class="cls-1" points="886.23 63.68 876.41 73.38 879.36 73.38 889.18 63.68 886.23 63.68"/>
        <polygon class="cls-1" points="894.09 63.68 884.27 73.38 887.22 73.38 897.04 63.68 894.09 63.68"/>
        <polygon class="cls-1" points="909.5 63.68 899.68 73.38 902.63 73.38 912.45 63.68 909.5 63.68"/>
        <polygon class="cls-1" points="934.06 63.68 924.24 73.38 927.18 73.38 937 63.68 934.06 63.68"/>
        <polygon class="cls-1" points="918.34 63.68 908.52 73.38 911.47 73.38 921.29 63.68 918.34 63.68"/>
        <polygon class="cls-1" points="926.2 63.68 916.38 73.38 919.33 73.38 929.15 63.68 926.2 63.68"/>
        <polygon class="cls-1" points="950.21 63.68 940.39 73.38 943.33 73.38 953.16 63.68 950.21 63.68"/>
        <polygon class="cls-1" points="942.35 63.68 932.53 73.38 935.48 73.38 945.3 63.68 942.35 63.68"/>
        <polygon class="cls-1" points="973.59 63.68 963.77 73.38 966.71 73.38 976.53 63.68 973.59 63.68"/>
        <polygon class="cls-1" points="957.87 63.68 948.05 73.38 951 73.38 960.82 63.68 957.87 63.68"/>
        <polygon class="cls-1" points="965.73 63.68 955.91 73.38 958.86 73.38 968.68 63.68 965.73 63.68"/>
        <polygon class="cls-1" points="981.6 63.68 971.78 73.38 974.73 73.38 984.55 63.68 981.6 63.68"/>
        <polygon class="cls-1" points="997.75 63.68 987.93 73.38 990.88 73.38 1000.7 63.68 997.75 63.68"/>
        <polygon class="cls-1" points="989.9 63.68 980.07 73.38 983.02 73.38 992.84 63.68 989.9 63.68"/>
        <polygon class="cls-1" points="1021.13 63.68 1011.31 73.38 1014.26 73.38 1024.08 63.68 1021.13 63.68"/>
        <polygon class="cls-1" points="1028.69 63.68 1018.87 73.38 1021.81 73.38 1031.63 63.68 1028.69 63.68"/>
        <polygon class="cls-1" points="1005.42 63.68 995.6 73.38 998.54 73.38 1008.36 63.68 1005.42 63.68"/>
        <polygon class="cls-1" points="1013.27 63.68 1003.45 73.38 1006.4 73.38 1016.22 63.68 1013.27 63.68"/>
      </g>
    </g>
  </g>
</svg>