<?xml version="1.0" encoding="UTF-8"?>
<svg id="_レイヤー_2" data-name="レイヤー_2" xmlns="http://www.w3.org/2000/svg" viewBox="0 0 2156.27 145.75">
  <defs>
    <style>
      .cls-1 {
        fill-rule: evenodd;
      }
    </style>
  </defs>
  <g id="_レイヤー_2-2" data-name="レイヤー_2">
    <path d="M1685.01,93.96c-1.65,2.33-3.89,4.13-6.51,5.22l-.1.04c-2.95,1.19-6.36,1.88-9.94,1.88-.26,0-.52,0-.78,0h.04-.19c-2.77,0-5.47-.28-8.08-.81l.26.04c-2.26-.4-4.28-1.06-6.16-1.95l.15.06c-.39-.19-.66-.59-.66-1.04,0-.03,0-.05,0-.08h0s0-10.26,0-10.26v-.02c0-.2.09-.39.24-.51h0c.07-.04.14-.06.23-.06.12,0,.23.05.31.12h0c2.11,1.26,4.55,2.27,7.15,2.86l.17.03c2.07.56,4.45.88,6.91.88h.06,0c.18,0,.4.02.61.02,1.54,0,3.02-.31,4.36-.88l-.08.03c.94-.44,1.59-1.38,1.59-2.48h0c-.08-.99-.62-1.84-1.4-2.35h-.01c-1.66-1.1-3.57-2.04-5.59-2.73l-.18-.05c-3.2-1.14-5.96-2.58-8.5-4.32l.12.08c-1.84-1.33-3.35-3-4.45-4.94l-.04-.08c-.85-1.67-1.35-3.63-1.35-5.72,0-.11,0-.22,0-.33h0c0-2.62.76-5.09,2.04-7.18l-.03.06c1.51-2.36,3.61-4.21,6.1-5.39l.09-.04c2.8-1.31,6.07-2.08,9.53-2.08.32,0,.63,0,.95.02h-.05c2.58,0,5.12.19,7.59.57l-.28-.03c1.89.26,3.6.74,5.21,1.41l-.14-.05c.26.09.47.28.59.52h0c.07.21.11.46.12.71h0v9.62h0c0,.25-.11.45-.29.59h0c-.16.06-.34.09-.53.09s-.37-.03-.54-.09h0c-1.63-.88-3.53-1.57-5.53-1.98l-.14-.02c-1.98-.47-4.25-.75-6.59-.76h-.01c-.12,0-.26,0-.41,0-1.12,0-2.2.15-3.22.44l.08-.02c-.76.17-1.39.59-1.82,1.17h0c-.29.46-.46,1.01-.47,1.6h0c.03.59.25,1.12.6,1.54h0c.55.64,1.22,1.18,1.97,1.57l.04.02c1.35.71,2.77,1.35,4.18,1.94,3.47,1.18,6.48,2.64,9.26,4.41l-.17-.1c1.94,1.23,3.51,2.88,4.62,4.83l.03.07c.86,1.67,1.36,3.63,1.36,5.72,0,.12,0,.25,0,.37v-.02c0,.08,0,.17,0,.26,0,2.83-.86,5.46-2.33,7.64l.03-.05h0ZM1643.19,71.02c-2.36,3.26-5.59,5.75-9.35,7.15l-.14.05c-3.66,1.28-7.87,2.02-12.26,2.02-.35,0-.71,0-1.07-.01h.05c-1.42,0-2.36,0-2.95-.06s-1.42-.06-2.53-.06v18.93s0,.06,0,.1c0,.38-.28.69-.65.74h-11.45c-.47,0-.71-.24-.71-.77v-60.68c0-.41.17-.65.59-.65,1,0,1.94,0,3.3-.06,1.42-.06,2.89-.06,4.48-.12s3.3-.06,5.13-.12,3.6-.06,5.37-.06c.3,0,.65-.01,1-.01,3.99,0,7.83.67,11.4,1.92l-.25-.08c3.09,1.07,5.73,2.72,7.91,4.84h0c1.85,1.85,3.31,4.09,4.26,6.59l.04.13c.85,2.28,1.35,4.91,1.35,7.67h0c0,.26.02.57.02.87,0,4.36-1.33,8.41-3.61,11.77l.05-.08h0ZM1686.78,2.3h-91.44c-13.83,0-25.05,11.21-25.05,25.05v.02h0v87.9c0,13.83,11.21,25.05,25.05,25.05h91.46c13.83,0,25.05-11.21,25.05-25.05v-.02h0V27.35c0-13.83-11.21-25.05-25.05-25.05h-.02ZM1628.39,50.19c-1.87-.76-4.04-1.19-6.31-1.19-.23,0-.45,0-.68.01h.03c-1.53,0-2.89,0-4.01.06-.26-.02-.57-.03-.88-.03-.54,0-1.08.03-1.6.09h.06s0,19.81,0,19.81c.83.06,1.59.12,2.3.12h3.15c2.42,0,4.74-.39,6.91-1.1l-.16.04c1.94-.58,3.58-1.67,4.82-3.11h0c1.15-1.52,1.85-3.44,1.85-5.51,0-.2,0-.4-.02-.6v.03c0-.08,0-.19,0-.29,0-1.83-.51-3.54-1.38-5l.02.04c-.99-1.52-2.4-2.69-4.07-3.34l-.06-.02h0Z"/>
    <path d="M1835.4,46.37c-1.27,1.29-3.02,2.08-4.96,2.08-.15,0-.29,0-.43-.01h.02-.16c-1.99,0-3.79-.79-5.11-2.07h0c-1.25-1.36-2.01-3.18-2.01-5.18,0-.09,0-.18,0-.26h0c0-.06,0-.15,0-.24,0-1.97.81-3.74,2.12-5.01h0c1.36-1.28,3.2-2.07,5.22-2.07h.06,0c.11,0,.24,0,.37,0,1.96,0,3.73.79,5.01,2.08h0c1.21,1.32,1.95,3.09,1.95,5.03,0,.08,0,.16,0,.24h0c0,.07,0,.17,0,.26,0,2-.78,3.82-2.07,5.17h0s0,0,0,0ZM1836.64,99.71c0,.65-.23.95-.76.95h-11.59s-.04,0-.07,0c-.46,0-.83-.37-.83-.83,0-.04,0-.09,0-.12h0s0-45.48,0-45.48c0-.59.24-.83.78-.83h11.7c.53,0,.76.29.76.83v45.48ZM1816.55,100.6h-12.35s-.05,0-.08,0c-.41,0-.75-.27-.86-.65h0s-4.85-14.06-4.85-14.06h-21.98l-4.49,13.88c-.1.48-.52.84-1.02.84-.03,0-.07,0-.1,0h0-11.1c-.65,0-.83-.36-.65-1.06l19.02-54.76c.17-.59.35-1.24.59-1.95.23-1.14.35-2.46.35-3.81v-.03h0s0-.05,0-.08c0-.28.2-.52.47-.58h15.31c.47,0,.71.17.77.47l21.56,60.84c.18.64,0,.95-.59.95h0ZM1846.38,2.95h-91.58c-13.86,0-25.09,11.23-25.09,25.09v.02h0v88.04c0,13.86,11.23,25.09,25.09,25.09h91.6c13.86,0,25.09-11.23,25.09-25.09v-.02h0V28.04c0-13.86-11.23-25.09-25.09-25.09h-.02ZM1791.92,64.56c-.59-1.83-1.12-3.6-1.71-5.44s-1.12-3.55-1.59-5.26c-.47-1.65-.88-3.19-1.3-4.61h-.12c-.64,3.08-1.33,5.64-2.16,8.13l.15-.51c-.88,2.84-1.77,5.79-2.72,8.74-.83,3.01-1.71,5.79-2.6,8.27h15c-.35-1.25-.83-2.72-1.36-4.26-.53-1.59-1.06-3.3-1.59-5.07h0Z"/>
    <path d="M99.34,28.04l-76.61-.02,1.24,15.24h58.86s-1.48,15.8-1.48,15.8h-38.6l1.4,14.95h35.93l-2.13,20.48-16.91,4.67-17.18-4.71-1.09-12.27h-15.17l1.68,22.41,31.77,9.9,31.23-8.89,7.08-77.57h0ZM0,2.39h122.07l-11.1,125.34-50.07,14.16-49.79-14.17L0,2.39Z"/>
    <path d="M187.79,58.28l-1.37-16,59.22.02,1.36-15.44-77.57-.02,4.11,47.16h53.73l-1.92,20.17-17.13,4.73-17.4-4.77-1.11-12.42h-15.36l1.94,24.56,31.92,8.54,31.67-8.49,4.38-48.02h-56.47,0ZM146.4.88h123.64l-11.24,126.95-50.71,14.35-50.42-14.35L146.4.88Z"/>
    <path d="M358.82,61.86h-12.43c0,10.71-.05,21.36-.05,32.09.15,1.46.23,3.15.23,4.86,0,3.58-.36,7.08-1.04,10.46l.06-.34c-1.82,3.81-6.53,3.32-8.66,2.65-2-1.07-3.57-2.69-4.56-4.67l-.03-.06c-.19-.42-.43-.77-.71-1.09h0s-10.09,6.22-10.09,6.22c1.62,3.49,4.13,6.34,7.24,8.34l.08.05c3.38,1.89,7.41,3,11.7,3,2.14,0,4.22-.28,6.2-.8l-.17.04c4.37-1.1,7.93-3.94,9.97-7.72l.04-.08c1.59-4.04,2.5-8.73,2.5-13.63,0-1.72-.12-3.41-.33-5.07l.02.19c.07-11.36,0-22.72,0-34.16l.02-.31ZM408.48,101.91c-.97-6.05-4.91-11.14-16.6-15.88-4.07-1.91-8.59-3.23-9.94-6.3-.28-.7-.44-1.51-.44-2.35,0-.55.07-1.08.19-1.59v.04c.91-2.43,3.22-4.14,5.93-4.14.88,0,1.72.18,2.47.5l-.04-.02c2.44.84,4.37,2.63,5.37,4.92l.02.06q5.72-3.74,9.7-6.22c-.96-1.63-2.03-3.05-3.25-4.32h0c-3.39-3.59-8.19-5.83-13.52-5.83-.76,0-1.5.04-2.23.13h.09s-3.9.48-3.9.48c-3.79.86-7.02,2.83-9.44,5.54v.02c-2.38,2.94-3.81,6.72-3.81,10.83,0,5.66,2.71,10.68,6.9,13.85l.04.03c7.55,5.64,18.58,6.88,19.99,12.19,1.33,6.47-4.81,8.54-10.87,7.79-4.23-.96-7.7-3.67-9.66-7.31l-.04-.08-10.12,5.81c1.19,2.37,2.69,4.4,4.47,6.13h0c9.62,9.71,33.66,9.21,37.98-5.55.5-1.61.79-3.46.79-5.37,0-1.33-.14-2.62-.4-3.87l.02.12.25.38ZM286.67.88h132.67v132.67h-132.67V.88Z"/>
    <path d="M1312.5,3.73c-39.47,0-71.46,31.99-71.46,71.46,0,31.38,20.23,58.04,48.36,67.64l.51.15c3.57.67,4.88-1.53,4.88-3.44,0-1.7-.06-6.19-.09-12.15-19.88,4.31-24.07-9.59-24.07-9.59-1.37-4.41-4.18-8.03-7.88-10.41l-.08-.04c-6.47-4.43.5-4.34.5-4.34,4.7.66,8.64,3.42,10.91,7.29l.04.07c2.64,4.74,7.62,7.9,13.35,7.9,2.74,0,5.32-.72,7.54-2l-.08.04c.34-3.77,2.01-7.1,4.52-9.55h0c-15.87-1.79-32.55-7.94-32.55-35.32,0-.13,0-.28,0-.42,0-7.25,2.8-13.84,7.37-18.77v.02c-.98-2.58-1.54-5.57-1.54-8.68,0-3.7.79-7.22,2.22-10.4l-.07.16s5.99-1.92,19.65,7.32c5.36-1.53,11.51-2.41,17.87-2.41s12.51.88,18.34,2.53l-.48-.11c13.58-9.24,19.56-7.32,19.56-7.32,1.36,3.06,2.15,6.62,2.15,10.37,0,3.06-.52,5.99-1.49,8.72l.06-.18c4.54,4.92,7.33,11.51,7.33,18.76,0,.15,0,.29,0,.43v-.02c0,27.45-16.7,33.5-32.6,35.25,3.01,3.08,4.87,7.3,4.87,11.96,0,.44-.02.89-.05,1.32v-.06c0,9.56-.09,17.25-.09,19.57,0,1.88,1.25,4.11,4.91,3.39,28.73-9.67,49.04-36.35,49.04-67.79,0-39.42-31.96-71.37-71.37-71.37h-.09.01Z"/>
    <path class="cls-1" d="M1942.91,4.05h-12.95c-14.3,0-25.89,11.59-25.89,25.89,0,7.73,3.39,14.68,8.77,19.42-5.38,4.74-8.77,11.69-8.77,19.42s3.39,14.68,8.77,19.42c-5.38,4.74-8.77,11.69-8.77,19.42,0,14.3,11.59,25.89,25.89,25.89s25.89-11.59,25.89-25.89v-16.41c3.81,2.2,8.23,3.46,12.95,3.46,14.3,0,25.89-11.59,25.89-25.89,0-7.73-3.39-14.68-8.77-19.42,5.38-4.74,8.77-11.69,8.77-19.42,0-14.3-11.59-25.89-25.89-25.89h-25.89ZM1955.86,16.99v25.89h12.95c7.15,0,12.95-5.8,12.95-12.95s-5.8-12.95-12.95-12.95h-12.95ZM1942.91,55.84h-12.95c-7.15,0-12.95,5.8-12.95,12.95s5.8,12.95,12.95,12.95h12.95v-25.89ZM1929.96,42.89h12.95v-25.89h-12.95c-7.15,0-12.95,5.8-12.95,12.95s5.8,12.95,12.95,12.95ZM1955.86,68.78c0,7.15,5.8,12.95,12.95,12.95s12.95-5.8,12.95-12.95-5.8-12.95-12.95-12.95-12.95,5.8-12.95,12.95ZM1929.96,94.68h12.95v12.95c0,7.15-5.8,12.95-12.95,12.95s-12.95-5.8-12.95-12.95,5.8-12.95,12.95-12.95Z"/>
    <path id="wordpress-_x5B__x23_139_x5D_" class="cls-1" d="M1028.69,40.22c.31,2.27.48,4.7.48,7.33,0,12.54-1.16,13.24-27.21,88.53,21.2-12.36,35.46-35.34,35.46-61.64,0-12.4-3.17-24.06-8.74-34.21h0ZM967.37,80.67l-21.4,62.17c14.44,4.25,29.74,3.82,43.83-1.13-.19-.31-.36-.63-.51-.99l-21.92-60.05ZM1014.26,70.83c0-8.82-3.17-14.92-5.88-19.67-3.61-5.87-7-10.85-7-16.72,0-6.55,4.98-12.66,11.98-12.66.31,0,.61.04.92.06-12.69-11.62-29.59-18.72-48.16-18.72-24.91,0-46.83,12.78-59.58,32.14,4.54.14,10.64.2,23.6-.81,3.84-.23,4.29,5.42.46,5.87,0,0-3.87.46-8.17.69l25.97,77.25,15.6-46.81-11.11-30.44c-3.84-.22-7.47-.68-7.47-.68-3.84-.23-3.39-6.1.45-5.87,14.74,1.13,22.28,1.22,37.79,0,3.84-.23,4.3,5.42.46,5.87,0,0-3.87.46-8.17.68l25.77,76.66c10.18-34,12.54-39.69,12.54-46.82h0ZM894.8,74.43c0,28.23,16.4,52.62,40.19,64.18l-34.02-93.2c-3.96,8.87-6.18,18.68-6.18,29.02h0Z"/>
    <g>
      <path d="M674,75.5c-.99,1.48-1.97,3.45-2.96,4.93-.99,1.97-1.97,3.45-2.96,4.93,2.96-.49,5.92-.99,8.88-1.48-.99-2.96-1.97-5.43-2.96-8.39Z"/>
      <path d="M641.93,86.36c2.96.49,6.42.49,9.87.49s6.42-.49,9.87-.49c1.48-2.96,3.45-5.43,4.93-8.39,1.48-2.96,3.45-5.92,5.43-8.88-1.48-2.96-2.96-5.92-4.44-8.88-1.97-2.96-3.45-5.92-5.43-8.39-3.45-.49-6.42-.49-9.87-.49s-6.91.49-9.87.49c-1.97,2.47-3.95,5.43-5.43,8.39-1.48,2.96-2.96,5.92-4.44,8.88,1.48,2.96,2.96,5.92,4.44,8.88s2.96,5.92,4.93,8.39ZM651.8,58.72c5.92,0,10.36,4.44,10.36,10.36s-4.44,10.36-10.36,10.36-10.36-4.44-10.36-10.36,4.44-10.36,10.36-10.36Z"/>
      <path d="M668.08,52.8c.99,1.48,1.97,2.96,2.96,4.93.99,1.48,1.97,3.45,2.96,4.93.99-2.47,1.97-5.43,2.96-8.39-2.96-.49-5.92-.99-8.88-1.48Z"/>
      <path d="M634.53,85.37c-.99-1.48-1.97-2.96-2.96-4.93-.99-1.48-1.97-3.45-2.96-4.93-.99,2.96-1.97,5.43-2.96,8.39,2.96.49,5.92.99,8.88,1.48Z"/>
      <path d="M678.94,48.85c.49-1.97.49-4.44.99-6.42.99-8.39-.49-14.8-3.45-16.78-.49-.49-1.48-.49-2.47-.49-4.44,0-11.35,3.45-18.26,10.36,2.96,2.96,5.92,6.91,8.88,10.86,4.93.49,9.87,1.48,14.31,2.47Z"/>
      <path d="M632.06,57.74c.99-1.48,1.97-3.45,2.96-4.93-2.96.49-5.92.99-8.88,1.48.99,2.47,1.97,5.43,2.96,8.39.49-1.48,1.48-3.45,2.96-4.93Z"/>
      <path d="M651.3,46.39h5.92c-1.97-2.47-3.95-4.93-5.92-6.91-1.97,1.97-3.95,4.44-5.92,6.91h5.92Z"/>
      <path d="M678.45,88.33c-3.95,1.48-8.88,1.97-13.82,2.47-2.96,4.44-6.42,7.9-9.38,11.35,7.4,7.4,14.31,10.86,18.75,10.86.99,0,1.97,0,2.47-.49,3.45-1.97,4.44-8.39,3.45-16.78-.49-1.97-.99-4.44-1.48-7.4Z"/>
      <path d="M688.81,57.74c-1.97-.49-3.95-1.48-6.42-1.97-.99,3.95-2.96,8.88-4.93,13.32,1.97,4.44,3.45,8.88,4.93,13.32,2.47-.99,4.44-1.48,6.42-2.47,7.9-2.96,12.83-7.4,12.83-10.86,0-3.95-4.93-7.9-12.83-11.35Z"/>
      <path d="M651.3,91.79h-5.92c1.97,2.47,3.95,4.93,5.92,6.91,1.97-1.97,3.95-4.44,5.92-6.91h-5.92Z"/>
      <path d="M699.67,0h-98.7c-10.86,0-19.74,8.88-19.74,19.74v98.7c0,10.86,8.88,19.74,19.74,19.74h98.7c10.86,0,19.74-8.88,19.74-19.74V19.74c0-10.86-8.88-19.74-19.74-19.74ZM683.38,87.84c3.45,14.31,1.97,25.66-4.44,29.61-1.48.99-3.45,1.48-5.43,1.48-5.92,0-14.31-4.44-22.21-12.34-7.9,7.9-15.79,12.34-22.21,12.34-1.97,0-3.95-.49-5.43-1.48-6.91-3.95-7.9-15.3-4.44-29.61-13.82-4.44-23.19-10.86-23.19-18.75s9.38-14.31,23.19-18.75c-3.45-14.31-1.97-25.66,4.44-29.12,1.48-.99,3.45-1.48,5.43-1.48,6.42,0,14.31,4.44,22.7,12.34,7.9-7.9,15.79-12.34,22.21-12.34,1.97,0,3.45.49,5.43,1.48,6.42,3.45,7.9,14.8,4.44,29.12,13.82,4.44,23.19,10.86,23.19,18.75,0,7.4-9.38,14.31-23.69,18.75Z"/>
      <path d="M624.66,49.35c4.44-.99,9.38-1.97,14.31-2.47,2.96-3.95,5.92-7.4,8.88-10.86-7.4-7.4-14.31-10.86-18.75-10.86-.99,0-1.97,0-2.47.49-3.45,1.97-4.44,8.39-3.45,16.78,0,1.97.49,4.44,1.48,6.91Z"/>
      <path d="M620.71,55.27c-2.47.49-4.44.99-6.42,1.97-7.9,3.45-12.83,7.9-12.83,11.35,0,3.95,4.93,7.9,12.83,11.35,1.97.99,3.95,1.97,6.42,1.97.99-4.44,2.96-8.88,4.93-13.32-1.97-4.44-3.45-8.88-4.93-13.32Z"/>
      <path d="M624.66,88.83c-.99,2.47-.99,4.93-1.48,6.91-.99,8.39.49,14.8,3.45,16.78.49.49,1.48.49,2.47.99,4.44,0,11.35-3.95,18.75-10.86-3.45-3.45-6.42-7.4-9.38-11.35-4.93-.49-9.38-1.48-13.82-2.47Z"/>
    </g>
    <path d="M433.46,67.21v66.57h133.13V.65h-133.13v66.57ZM540.74,61.9c3.38.84,5.96,2.36,8.34,4.81,1.21,1.3,3.03,3.68,3.19,4.27.04.17-5.74,4.05-9.25,6.22-.13.09-.65-.45-1.21-1.3-1.71-2.49-3.51-3.57-6.26-3.77-4.03-.26-6.63,1.84-6.61,5.38-.02.87.17,1.73.56,2.49.89,1.84,2.56,2.95,7.71,5.18,9.54,4.09,13.61,6.8,16.14,10.64,2.84,4.29,3.47,11.14,1.56,16.25-2.12,5.53-7.37,9.29-14.74,10.53-2.28.41-7.69.35-10.14-.11-5.35-.95-10.42-3.6-13.54-7.06-1.24-1.34-3.62-4.88-3.47-5.11.07-.09.61-.43,1.21-.78s2.84-1.65,4.94-2.86l3.84-2.23.8,1.19c1.13,1.71,3.57,4.05,5.05,4.83,4.25,2.25,10.08,1.93,12.96-.65,1.17-.97,1.82-2.47,1.73-3.99,0-1.54-.2-2.23-1-3.38-1.04-1.47-3.14-2.73-9.14-5.33-6.87-2.97-9.84-4.79-12.52-7.71-1.69-1.93-2.95-4.2-3.66-6.65-.5-1.88-.63-6.61-.24-8.5,1.41-6.65,6.44-11.27,13.65-12.63,2.34-.45,7.8-.28,10.1.28h0ZM509.5,67.48l.04,5.44h-17.34v49.26h-12.26v-49.26h-17.31v-5.33c0-2.97.07-5.44.15-5.5.07-.09,10.6-.13,23.38-.11l23.27.07.07,5.44Z"/>
    <path d="M837.08,135.12c-.53.28-.49.37.02.11.17-.07.3-.16.42-.27q0-.09-.45.16h0ZM838.15,134.53q-.25.21.05.07c.16-.09.3-.18.3-.21,0-.12-.07-.09-.35.14ZM838.84,134.11q-.25.21.05.07c.17-.09.3-.19.3-.22,0-.11-.07-.09-.35.14ZM839.55,133.69q-.25.21.04.07c.17-.09.3-.18.3-.21,0-.11-.07-.09-.34.14h0ZM840.5,133.06c-.49.33-.66.54-.21.31.3-.18.81-.59.72-.59-.19.07-.35.19-.51.28h0ZM797.79.33c-.33.02-1.3.11-2.16.18-20.31,1.85-39.32,12.85-51.36,29.8-6.66,9.29-10.98,20.08-12.61,31.41-.58,3.95-.65,5.12-.65,10.48s.07,6.51.65,10.46c3.89,27.01,22.99,49.69,48.87,58.09,4.66,1.5,9.54,2.53,15.1,3.16,2.16.23,11.51.23,13.67,0,9.61-1.08,17.73-3.46,25.76-7.59,1.23-.63,1.46-.8,1.3-.93-3.93-5.22-7.79-10.44-11.65-15.71l-11.42-15.52-14.31-21.32c-4.77-7.14-9.56-14.25-14.42-21.32-.05,0-.11,9.48-.14,21.04-.05,20.24-.05,21.07-.3,21.53-.25.56-.67,1.03-1.23,1.29-.44.21-.84.26-2.95.26h-2.42l-.63-.4c-.39-.26-.72-.61-.93-1.03l-.3-.63.02-28.18.05-28.18.44-.56c.28-.35.63-.63,1.02-.84.59-.28.82-.33,3.23-.33,2.84,0,3.31.11,4.05.93,5.79,8.68,11.56,17.39,17.24,26.12,9.29,14.16,21.96,33.49,28.19,42.98l11.33,17.25.56-.37c5.44-3.65,10.4-8,14.67-12.96,9-10.37,14.85-23.13,16.82-36.75.58-3.95.65-5.13.65-10.48s-.07-6.51-.65-10.46c-3.89-27.01-22.99-49.69-48.87-58.1-4.84-1.54-9.82-2.59-14.86-3.13-1.35-.14-10.59-.31-11.75-.18h0ZM827.03,43.82c.67.32,1.18.93,1.42,1.64.12.38.14,8.19.12,25.79l-.05,25.27-4.42-6.83-4.44-6.84v-18.35c0-11.9.05-18.56.11-18.89.21-.75.72-1.38,1.4-1.78.55-.28.77-.31,2.98-.31,2.07,0,2.42.02,2.88.28h0Z"/>
    <path d="M1184.04,82.46c-1.28.54-2.55.81-3.84.81-2.04,0-3.88-.35-5.51-1.06-1.57-.67-2.98-1.67-4.12-2.93-1.12-1.25-1.98-2.71-2.58-4.39s-.89-3.5-.89-5.44.3-3.84.89-5.55c.6-1.71,1.45-3.2,2.56-4.46,1.14-1.29,2.54-2.31,4.12-2.99,1.74-.75,3.62-1.12,5.51-1.09,1.37,0,2.69.22,3.97.62,1.28.41,2.44,1.02,3.47,1.82s1.89,1.79,2.55,2.96c.69,1.24,1.11,2.62,1.23,4.04h-5.58c-.35-1.49-1.02-2.61-2.01-3.36-1.05-.77-2.33-1.16-3.63-1.12-1.32,0-2.44.26-3.36.76s-1.67,1.19-2.24,2.05c-.57.87-.99,1.84-1.25,2.93s-.39,2.22-.39,3.4.13,2.21.39,3.27c.26,1.06.68,2.01,1.25,2.86s1.32,1.53,2.24,2.04,2.04.76,3.36.76c1.94,0,3.45-.5,4.5-1.48,1.06-.98,1.67-2.4,1.86-4.26h-5.9v-4.4h11.18v14.41h-3.73l-.6-3.02c-.89,1.22-2.08,2.19-3.46,2.81ZM1201.33,56.01v21.69h13v4.95h-18.84v-26.64h5.85ZM1087.62,69.44c0-4.23,2.05-8.22,5.66-11.72l6.62,25.21h4.56l6.42-22.79,6.33,22.79h4.58l7.89-29h-5.14l-5.14,22.25-6.21-22.25h-4.71l-6.21,22.25-5.02-21.69c8.89-6.12,23.1-10.09,39.11-10.09,15,0,28.45,3.16,37.4,8.63-9.75-9.17-27.27-15.6-47.27-15.61-30.66,0-55.52,14.34-55.52,32.04s24.85,32.06,55.51,32.06c19.94,0,37.4-6.42,47.19-15.53-8.94,5.44-22.34,8.53-37.29,8.53-26.94,0-48.76-11.21-48.76-25.06h0ZM1142.53,66.14c-.68-.98-1.59-1.76-2.65-2.29-1.16-.56-2.43-.83-3.72-.81-1.56,0-2.96.28-4.18.84-1.15.52-2.15,1.32-2.92,2.31-1.46,1.86-2.22,4.48-2.22,7.58,0,1.37.2,2.68.58,3.84.36,1.13.94,2.17,1.7,3.08,1.56,1.82,3.78,2.78,6.43,2.78,1.39,0,2.52-.14,3.47-.44.82-.26,1.37-.6,1.83-.89,1.11-.74,2.02-1.74,2.65-2.92.54-.99.81-1.93.87-2.41l.04-.33h-3.78v.27c-.11,1.23-1.73,3.43-4.61,3.43-4.11,0-5.09-2.97-5.16-5.6h13.77v-.3c.02-1.54-.15-3.08-.51-4.58-.32-1.27-.86-2.48-1.6-3.56ZM1135.73,66.44c3.05,0,4.68,1.64,4.98,5.02h-9.86c.15-2.74,2.32-5.02,4.89-5.02ZM1163.67,68.92c-.34-1.12-.88-2.16-1.6-3.08-.7-.88-1.6-1.58-2.61-2.07-1.1-.51-2.29-.77-3.5-.75-1.1,0-2.19.26-3.17.76-.8.41-1.5.98-2.07,1.67v-8.9h-3.77v26.36h3.58v-1.8c.35.47.78.89,1.26,1.23,1.02.73,2.28,1.1,3.74,1.1,1.57,0,2.99-.35,4.18-1.05,1.06-.62,1.97-1.52,2.68-2.65.66-1.08,1.13-2.26,1.4-3.49.27-1.18.41-2.39.41-3.6.02-1.27-.16-2.53-.54-3.74h0ZM1160.28,73.2c0,2.07-.41,3.8-1.21,5.02-.77,1.25-2.15,1.99-3.61,1.94-2.25,0-4.89-1.57-4.89-6.02,0-2.13.27-3.77.81-5.02.78-1.8,2.1-2.66,4.01-2.66,2.04,0,3.42.79,4.18,2.45.63,1.36.72,3.02.72,4.29h0Z"/>
    <g id="_x32_069a460dcf28295e231f3111e0426ac">
      <path d="M2155.86,70.62c-.83-5.87-2.87-11.44-6.05-16.55-2.77-4.46-6.33-8.42-10.57-11.79h.01s-44.58-34.25-44.58-34.25c-.04-.03-.08-.06-.1-.08-1.48-1.14-3.49-1.76-5.65-1.76s-4.25.63-5.87,1.76c-1.74,1.22-2.74,2.83-2.81,4.55-.06,1.6.7,3.15,2.16,4.35,2.87,2.26,5.73,4.58,8.6,6.89,2.78,2.25,5.65,4.56,8.5,6.82l-54.6-.04c-6.24,0-10.5,2.93-11.37,7.84-.38,2.15.29,4.51,1.81,6.33,1.61,1.92,3.94,2.98,6.58,2.98h4.16c5.75,0,11.53-.01,17.29-.03h5.5s-49.56,36.65-49.56,36.65l-.2.14c-2.77,2.12-4.58,5.1-4.97,8.16-.3,2.32.25,4.44,1.57,6.14,1.58,2.02,4.03,3.13,6.93,3.13s5.74-1.08,8.16-3.04l26.76-21.9c-.11,1.07-.25,2.64-.24,3.78.03,1.8.61,5.42,1.53,8.36,1.89,6.04,5.08,11.56,9.48,16.41,4.57,5.05,10.15,9.05,16.56,11.89,6.78,3,14.07,4.52,21.66,4.52h.07c7.62-.02,14.93-1.56,21.73-4.6,6.42-2.88,11.99-6.89,16.55-11.94,4.39-4.87,7.58-10.41,9.47-16.44.93-2.98,1.54-6.07,1.79-9.18.23-3.01.13-6.08-.29-9.11ZM2107.1,99.55c-16.74,0-30.31-12.14-30.31-27.12s13.57-27.12,30.31-27.12,30.31,12.14,30.31,27.12c0,14.98-13.57,27.12-30.31,27.12ZM2124.58,70.05c.25,4.47-1.54,8.62-4.67,11.69-3.19,3.13-7.74,5.1-12.83,5.1s-9.64-1.97-12.83-5.1c-3.13-3.07-4.92-7.22-4.67-11.69.24-4.34,2.36-8.17,5.55-10.89,3.14-2.67,7.35-4.3,11.95-4.3s8.81,1.63,11.95,4.3c3.19,2.71,5.31,6.54,5.55,10.89Z"/>
    </g>
    <path d="M1544.05,66.86l-59.36-59.36c-1.59-1.58-3.78-2.56-6.2-2.56s-4.61.98-6.2,2.56h0l-12.3,12.32,15.64,15.64c1-.35,2.14-.55,3.34-.55,5.75,0,10.41,4.66,10.41,10.41,0,1.22-.21,2.38-.59,3.47l.02-.07,15.06,15.07c1.01-.36,2.17-.57,3.38-.57,5.75,0,10.41,4.66,10.41,10.41s-4.66,10.41-10.41,10.41-10.41-4.66-10.41-10.41c0-1.42.29-2.77.8-4l-.03.07-14.1-14.03v36.97c3.46,1.75,5.8,5.27,5.8,9.34,0,5.76-4.67,10.43-10.43,10.43s-10.43-4.67-10.43-10.43c0-2.87,1.16-5.47,3.04-7.36h0c.96-.96,2.09-1.73,3.36-2.28l.07-.03v-37.33c-3.82-1.6-6.45-5.32-6.45-9.64,0-1.45.29-2.83.83-4.08l-.03.07-15.36-15.44-40.71,40.68c-1.58,1.59-2.55,3.78-2.55,6.2s.97,4.61,2.55,6.2l59.37,59.35c1.58,1.59,3.77,2.57,6.19,2.57s4.61-.98,6.19-2.57l59.09-59.09c1.59-1.58,2.57-3.78,2.57-6.19s-.98-4.61-2.57-6.19h0Z"/>
  </g>
</svg>