<?xml version="1.0" encoding="UTF-8"?>
<svg xmlns="http://www.w3.org/2000/svg" version="1.1" viewBox="0 0 2156.3 145.8">
  <defs>
    <style>
      .cls-1 {
        fill-rule: evenodd;
      }
    </style>
  </defs>
  <!-- Generator: Adobe Illustrator 28.7.3, SVG Export Plug-In . SVG Version: 1.2.0 Build 164)  -->
  <g>
    <g id="_レイヤー_2">
      <g id="_レイヤー_2-2">
        <path d="M1685,94c-1.7,2.3-3.9,4.1-6.5,5.2h0c-2.9,1.2-6.4,1.9-9.9,1.9h-.8,0-.2c-2.8,0-5.5-.3-8.1-.8h.3c-2.3-.4-4.3-1-6.2-1.9h.2c-.4-.1-.7-.5-.7-1h0v-10.3h0c0-.2,0-.4.2-.5h0c0,0,.1,0,.2,0s.2,0,.3.1h0c2.1,1.3,4.6,2.3,7.2,2.9h.2c2.1.6,4.4.9,6.9.9h0c.2,0,.4,0,.6,0,1.5,0,3-.3,4.4-.9h0c.9-.4,1.6-1.3,1.6-2.5h0c0-1-.6-1.8-1.4-2.3h0c-1.7-1.1-3.6-2-5.6-2.7h-.2c-3.2-1.2-6-2.6-8.5-4.4h.1c-1.8-1.2-3.3-2.9-4.4-4.9h0c-.8-1.8-1.3-3.7-1.3-5.8v-.3h0c0-2.6.8-5.1,2-7.2h0c1.5-2.3,3.6-4.1,6.1-5.3h0c2.8-1.4,6.1-2.1,9.5-2.1s.6,0,.9,0h0c2.6,0,5.1.2,7.6.6h-.3c1.9.2,3.6.7,5.2,1.4h-.1c.3,0,.5.2.6.5h0c0,.2.1.5.1.7h0v9.6h0c0,.2-.1.4-.3.6h0c-.2,0-.3,0-.5,0s-.4,0-.5,0h0c-1.6-.9-3.5-1.6-5.5-2h-.1c-2-.5-4.2-.8-6.6-.8h-.4c-1.1,0-2.2.2-3.2.4h0c-.8.1-1.4.6-1.8,1.2h0c-.3.5-.5,1-.5,1.6h0c0,.6.2,1.1.6,1.5h0c.6.6,1.2,1.2,2,1.6h0c1.3.7,2.8,1.4,4.2,2,3.5,1.2,6.5,2.6,9.3,4.4h-.2c1.9,1.1,3.5,2.8,4.6,4.7h0c.9,1.7,1.4,3.7,1.4,5.8v.4h0v.2c0,2.8-.9,5.5-2.3,7.6h0c0,0,0,0,0,0ZM1643.2,71c-2.4,3.3-5.6,5.8-9.3,7.2h-.1c-3.7,1.3-7.9,2.1-12.3,2.1s-.7,0-1.1,0h0c-1.4,0-2.4,0-2.9,0s-1.4,0-2.5,0v18.9h0c0,.5-.3.8-.7.8h-11.4c-.5,0-.7-.2-.7-.8v-60.7c0-.4.2-.7.6-.7,1,0,1.9,0,3.3,0,1.4,0,2.9,0,4.5-.1s3.3,0,5.1-.1,3.6,0,5.4,0,.7,0,1,0c4,0,7.8.7,11.4,1.9h-.2c3.1,1,5.7,2.6,7.9,4.8h0c1.8,1.8,3.3,4.1,4.3,6.6h0c.8,2.4,1.3,5,1.3,7.8h0c0,.3,0,.6,0,.9,0,4.4-1.3,8.4-3.6,11.8h0c0,0,0,0,0,0ZM1686.8,2.3h-91.4c-13.8,0-25.1,11.2-25.1,25h0v87.9c0,13.8,11.2,25.1,25.1,25.1h91.5c13.8,0,25.1-11.2,25.1-25.1h0V27.4c0-13.8-11.2-25-25.1-25,0,0,0,0,0,0ZM1628.4,50.2c-1.9-.8-4-1.2-6.3-1.2s-.4,0-.7,0h0c-1.5,0-2.9,0-4,0-.3,0-.6,0-.9,0-.5,0-1.1,0-1.6,0h0v19.8c.8,0,1.6.1,2.3.1h3.2c2.4,0,4.7-.4,6.9-1.1h-.2c1.9-.5,3.6-1.6,4.8-3.1h0c1.2-1.5,1.8-3.4,1.8-5.5s0-.4,0-.6h0v-.3c0-1.8-.5-3.5-1.4-5h0c-1-1.5-2.4-2.6-4.1-3.3h0s0,0,0,0Z"/>
        <path d="M1835.4,46.4c-1.3,1.3-3,2.1-5,2.1s-.3,0-.4,0h0-.2c-2,0-3.8-.8-5.1-2.1h0c-1.2-1.4-2-3.2-2-5.2v-.3h0v-.2c0-2,.8-3.7,2.1-5h0c1.4-1.3,3.2-2.1,5.2-2.1h.4c2,0,3.7.8,5,2.1h0c1.2,1.3,1.9,3.1,1.9,5v.2h0v.3c0,2-.8,3.8-2.1,5.2h0ZM1836.6,99.7c0,.7-.2.9-.8.9h-11.7c-.5,0-.8-.4-.8-.8h0v-45.6c0-.6.2-.8.8-.8h11.7c.5,0,.8.3.8.8v45.5h0ZM1816.6,100.6h-12.4c-.4,0-.8-.3-.9-.7h0l-4.8-14.1h-22l-4.5,13.9c0,.5-.5.8-1,.8h-11.2c-.7,0-.8-.4-.7-1.1l19-54.8c.2-.6.3-1.2.6-2,.2-1.1.3-2.5.3-3.8h0c0-.4.2-.6.5-.7h15.3c.5,0,.7.2.8.5l21.6,60.8c.2.6,0,.9-.6.9h0ZM1846.4,3h-91.6c-13.9,0-25.1,11.2-25.1,25.1h0v88.1c0,13.9,11.2,25.1,25.1,25.1h91.6c13.9,0,25.1-11.2,25.1-25.1h0V28c0-13.9-11.2-25.1-25.1-25.1,0,0,0,0,0,0ZM1791.9,64.6c-.6-1.8-1.1-3.6-1.7-5.4s-1.1-3.5-1.6-5.3c-.5-1.7-.9-3.2-1.3-4.6h-.1c-.6,3.1-1.3,5.6-2.2,8.1l.2-.5c-.9,2.8-1.8,5.8-2.7,8.7-.8,3-1.7,5.8-2.6,8.3h15c-.3-1.2-.8-2.7-1.4-4.3-.5-1.6-1.1-3.3-1.6-5.1h0Z"/>
        <path d="M187.8,58.3l-1.4-16h59.2s1.4-15.4,1.4-15.4h-77.6s4.1,47.1,4.1,47.1h53.7l-1.9,20.2-17.1,4.7-17.4-4.8-1.1-12.4h-15.4l1.9,24.6,31.9,8.5,31.7-8.5,4.4-48h-56.5ZM146.4.9h123.6l-11.2,126.9-50.7,14.3-50.4-14.3L146.4.9Z"/>
        <path d="M358.8,61.9h-12.4c0,10.7,0,21.4,0,32.1.1,1.5.2,3.2.2,4.9,0,3.6-.4,7.1-1,10.5v-.3c-1.8,3.8-6.5,3.3-8.6,2.7-2-1.1-3.6-2.7-4.6-4.7h0c-.2-.5-.4-.8-.7-1.1h0l-10.1,6.2c1.6,3.5,4.1,6.3,7.2,8.3h0c3.4,1.9,7.4,3.1,11.7,3.1s4.2-.3,6.2-.8h-.2c4.4-1.1,7.9-3.9,10-7.7h0c1.6-4.1,2.5-8.8,2.5-13.7s-.1-3.4-.3-5.1v.2c0-11.4,0-22.7,0-34.2v-.3s0,0,0,0ZM408.5,101.9c-1-6.1-4.9-11.1-16.6-15.9-4.1-1.9-8.6-3.2-9.9-6.3-.3-.7-.4-1.5-.4-2.3s0-1.1.2-1.6h0c.9-2.4,3.2-4.1,5.9-4.1s1.7.2,2.5.5h0c2.4.8,4.4,2.6,5.4,4.9h0c3.8-2.4,7-4.5,9.7-6.2-1-1.6-2-3.1-3.2-4.3h0c-3.4-3.6-8.2-5.8-13.5-5.8s-1.5,0-2.2.1h0l-3.9.5c-3.8.9-7,2.8-9.4,5.5h0c-2.4,3-3.8,6.7-3.8,10.8s2.7,10.7,6.9,13.8h0c7.5,5.7,18.6,6.9,20,12.2,1.3,6.5-4.8,8.5-10.9,7.8-4.2-1-7.7-3.7-9.7-7.3h0c0,0-10.1,5.7-10.1,5.7,1.2,2.4,2.7,4.4,4.5,6.1h0c9.6,9.7,33.7,9.2,38-5.6.5-1.6.8-3.5.8-5.4s-.1-2.6-.4-3.9h0c0,.1.2.5.2.5h0ZM286.7.9h132.7v132.7h-132.7V.9h0Z"/>
        <path d="M1312.5,3.7c-39.5,0-71.5,32-71.5,71.5s20.2,58,48.4,67.6h.5c3.6.8,4.9-1.4,4.9-3.3s0-6.2,0-12.2c-19.9,4.3-24.1-9.6-24.1-9.6-1.4-4.4-4.2-8-7.9-10.4h0c-6.5-4.5.5-4.4.5-4.4,4.7.7,8.6,3.4,10.9,7.3h0c2.6,4.8,7.6,8,13.3,8s5.3-.7,7.5-2h0c.3-3.7,2-7.1,4.5-9.5h0c-15.9-1.8-32.6-7.9-32.6-35.3v-.4c0-7.2,2.8-13.8,7.4-18.8h0c-1-2.6-1.5-5.5-1.5-8.7s.8-7.2,2.2-10.4v.2c0,0,5.9-1.9,19.6,7.3,5.4-1.5,11.5-2.4,17.9-2.4s12.5.9,18.3,2.5h-.5c13.6-9.4,19.6-7.4,19.6-7.4,1.4,3.1,2.2,6.6,2.2,10.4s-.5,6-1.5,8.7v-.2c4.6,4.9,7.4,11.5,7.4,18.8v.4h0c0,27.4-16.7,33.5-32.6,35.2,3,3.1,4.9,7.3,4.9,12s0,.9,0,1.3h0c0,9.5,0,17.2,0,19.5s1.2,4.1,4.9,3.4c28.7-9.7,49-36.3,49-67.8s-32-71.4-71.4-71.4h0,0,0Z"/>
        <path class="cls-1" d="M1942.9,4.1h-12.9c-14.3,0-25.9,11.6-25.9,25.9s3.4,14.7,8.8,19.4c-5.4,4.7-8.8,11.7-8.8,19.4s3.4,14.7,8.8,19.4c-5.4,4.7-8.8,11.7-8.8,19.4,0,14.3,11.6,25.9,25.9,25.9s25.9-11.6,25.9-25.9v-16.4c3.8,2.2,8.2,3.5,12.9,3.5,14.3,0,25.9-11.6,25.9-25.9s-3.4-14.7-8.8-19.4c5.4-4.7,8.8-11.7,8.8-19.4,0-14.3-11.6-25.9-25.9-25.9,0,0-25.9,0-25.9,0ZM1955.9,17v25.9h12.9c7.2,0,12.9-5.8,12.9-13s-5.8-13-12.9-13h-12.9ZM1942.9,55.8h-12.9c-7.2,0-12.9,5.8-12.9,13s5.8,12.9,12.9,12.9h12.9v-25.9h0ZM1930,42.9h12.9v-25.9h-12.9c-7.2,0-12.9,5.8-12.9,13s5.8,13,12.9,13h0ZM1955.9,68.8c0,7.2,5.8,12.9,12.9,12.9s12.9-5.8,12.9-12.9-5.8-13-12.9-13-12.9,5.8-12.9,13ZM1930,94.7h12.9v12.9c0,7.2-5.8,12.9-12.9,12.9s-12.9-5.8-12.9-12.9,5.8-12.9,12.9-12.9Z"/>
        <path id="wordpress-_x5B__x23_139_x5D_" class="cls-1" d="M1028.7,40.2c.3,2.3.5,4.7.5,7.3,0,12.5-1.2,13.2-27.2,88.5,21.2-12.4,35.5-35.3,35.5-61.6s-3.2-24.1-8.7-34.2h0ZM967.4,80.7l-21.4,62.2c14.4,4.2,29.7,3.8,43.8-1.1-.2-.3-.4-.6-.5-1l-21.9-60.1h0ZM1014.3,70.8c0-8.8-3.2-14.9-5.9-19.7-3.6-5.9-7-10.8-7-16.7s5-12.7,12-12.7.6,0,.9,0c-12.7-11.6-29.6-18.7-48.2-18.7s-46.8,12.8-59.6,32.1c4.5.1,10.6.2,23.6-.8,3.8-.2,4.3,5.4.5,5.9,0,0-3.9.5-8.2.7l26,77.2,15.6-46.8-11.1-30.4c-3.8-.2-7.5-.7-7.5-.7-3.8-.2-3.4-6.1.5-5.9,14.7,1.1,22.3,1.2,37.8,0,3.8-.2,4.3,5.4.5,5.9,0,0-3.9.5-8.2.7l25.8,76.7c10.2-34,12.5-39.7,12.5-46.8h0ZM894.8,74.4c0,28.2,16.4,52.6,40.2,64.2l-34-93.2c-4,8.9-6.2,18.7-6.2,29h0Z"/>
        <g>
          <path d="M674,75.5c-1,1.5-2,3.4-3,4.9-1,2-2,3.4-3,4.9,3-.5,5.9-1,8.9-1.5-1-3-2-5.4-3-8.4h0Z"/>
          <path d="M641.9,86.4c3,.5,6.4.5,9.9.5s6.4-.5,9.9-.5c1.5-3,3.5-5.4,4.9-8.4s3.5-5.9,5.4-8.9c-1.5-3-3-5.9-4.4-8.9-2-3-3.5-5.9-5.4-8.4-3.5-.5-6.4-.5-9.9-.5s-6.9.5-9.9.5c-2,2.5-4,5.4-5.4,8.4s-3,5.9-4.4,8.9c1.5,3,3,5.9,4.4,8.9s3,5.9,4.9,8.4h0ZM651.8,58.7c5.9,0,10.4,4.4,10.4,10.4s-4.4,10.4-10.4,10.4-10.4-4.4-10.4-10.4,4.4-10.4,10.4-10.4Z"/>
          <path d="M668.1,52.8c1,1.5,2,3,3,4.9,1,1.5,2,3.5,3,4.9,1-2.5,2-5.4,3-8.4-3-.5-5.9-1-8.9-1.5h0Z"/>
          <path d="M634.5,85.4c-1-1.5-2-3-3-4.9-1-1.5-2-3.4-3-4.9-1,3-2,5.4-3,8.4,3,.5,5.9,1,8.9,1.5h0Z"/>
          <path d="M678.9,48.8c.5-2,.5-4.4,1-6.4,1-8.4-.5-14.8-3.5-16.8-.5-.5-1.5-.5-2.5-.5-4.4,0-11.3,3.5-18.3,10.4,3,3,5.9,6.9,8.9,10.9,4.9.5,9.9,1.5,14.3,2.5Z"/>
          <path d="M632.1,57.7c1-1.5,2-3.5,3-4.9-3,.5-5.9,1-8.9,1.5,1,2.5,2,5.4,3,8.4.5-1.5,1.5-3.5,3-4.9h0Z"/>
          <path d="M651.3,46.4h5.9c-2-2.5-4-4.9-5.9-6.9-2,2-4,4.4-5.9,6.9h5.9Z"/>
          <path d="M678.5,88.3c-4,1.5-8.9,2-13.8,2.5-3,4.4-6.4,7.9-9.4,11.3,7.4,7.4,14.3,10.9,18.8,10.9s2,0,2.5-.5c3.5-2,4.4-8.4,3.5-16.8-.5-2-1-4.4-1.5-7.4h0Z"/>
          <path d="M688.8,57.7c-2-.5-4-1.5-6.4-2-1,4-3,8.9-4.9,13.3,2,4.4,3.5,8.9,4.9,13.3,2.5-1,4.4-1.5,6.4-2.5,7.9-3,12.8-7.4,12.8-10.9s-4.9-7.9-12.8-11.3h0Z"/>
          <path d="M651.3,91.8h-5.9c2,2.5,4,4.9,5.9,6.9,2-2,4-4.4,5.9-6.9,0,0-5.9,0-5.9,0Z"/>
          <path d="M699.7,0h-98.7c-10.9,0-19.7,8.9-19.7,19.7v98.7c0,10.9,8.9,19.7,19.7,19.7h98.7c10.9,0,19.7-8.9,19.7-19.7V19.7c0-10.9-8.9-19.7-19.7-19.7ZM683.4,87.8c3.5,14.3,2,25.7-4.4,29.6-1.5,1-3.5,1.5-5.4,1.5-5.9,0-14.3-4.4-22.2-12.3-7.9,7.9-15.8,12.3-22.2,12.3s-4-.5-5.4-1.5c-6.9-3.9-7.9-15.3-4.4-29.6-13.8-4.4-23.2-10.9-23.2-18.8s9.4-14.3,23.2-18.8c-3.5-14.3-2-25.7,4.4-29.1,1.5-1,3.5-1.5,5.4-1.5,6.4,0,14.3,4.4,22.7,12.3,7.9-7.9,15.8-12.3,22.2-12.3s3.5.5,5.4,1.5c6.4,3.5,7.9,14.8,4.4,29.1,13.8,4.4,23.2,10.9,23.2,18.8s-9.4,14.3-23.7,18.8h0Z"/>
          <path d="M624.7,49.3c4.4-1,9.4-2,14.3-2.5,3-4,5.9-7.4,8.9-10.9-7.4-7.4-14.3-10.9-18.8-10.9s-2,0-2.5.5c-3.5,2-4.4,8.4-3.5,16.8,0,2,.5,4.4,1.5,6.9h0Z"/>
          <path d="M620.7,55.3c-2.5.5-4.4,1-6.4,2-7.9,3.5-12.8,7.9-12.8,11.4s4.9,7.9,12.8,11.3c2,1,4,2,6.4,2,1-4.4,3-8.9,4.9-13.3-2-4.4-3.5-8.9-4.9-13.3Z"/>
          <path d="M624.7,88.8c-1,2.5-1,4.9-1.5,6.9-1,8.4.5,14.8,3.5,16.8.5.5,1.5.5,2.5,1,4.4,0,11.3-3.9,18.8-10.9-3.5-3.4-6.4-7.4-9.4-11.3-4.9-.5-9.4-1.5-13.8-2.5h0Z"/>
        </g>
        <path d="M433.5,67.2v66.6h133.1V.6h-133.1v66.6h0ZM540.7,61.9c3.4.8,6,2.4,8.3,4.8,1.2,1.3,3,3.7,3.2,4.3,0,.2-5.7,4.1-9.2,6.2-.1,0-.7-.4-1.2-1.3-1.7-2.5-3.5-3.6-6.3-3.8-4-.3-6.6,1.8-6.6,5.4,0,.9.2,1.7.6,2.5.9,1.8,2.6,2.9,7.7,5.2,9.5,4.1,13.6,6.8,16.1,10.6,2.8,4.3,3.5,11.1,1.6,16.2-2.1,5.5-7.4,9.3-14.7,10.5-2.3.4-7.7.3-10.1-.1-5.3-.9-10.4-3.6-13.5-7.1-1.2-1.3-3.6-4.9-3.5-5.1,0,0,.6-.4,1.2-.8s2.8-1.7,4.9-2.9l3.8-2.2.8,1.2c1.1,1.7,3.6,4.1,5,4.8,4.2,2.2,10.1,1.9,13-.7,1.2-1,1.8-2.5,1.7-4,0-1.5-.2-2.2-1-3.4-1-1.5-3.1-2.7-9.1-5.3-6.9-3-9.8-4.8-12.5-7.7-1.7-1.9-3-4.2-3.7-6.7-.5-1.9-.6-6.6-.2-8.5,1.4-6.7,6.4-11.3,13.7-12.6,2.3-.5,7.8-.3,10.1.3h0ZM509.5,67.5v5.4s-17.3,0-17.3,0v49.3h-12.3v-49.3h-17.3v-5.3c0-3,0-5.4.1-5.5,0,0,10.6-.1,23.4-.1h23.3c0,0,0,5.5,0,5.5h0Z"/>
        <path d="M837.1,135.1c-.5.3-.5.4,0,.1.2,0,.3-.2.4-.3,0,0-.1,0-.5.2h0ZM838.2,134.5c-.2.1-.2.2,0,0,.2,0,.3-.2.3-.2,0-.1,0,0-.3.1ZM838.8,134.1c-.2.1-.2.2,0,0,.2,0,.3-.2.3-.2,0-.1,0,0-.3.1h0ZM839.5,133.7c-.2.1-.2.2,0,0,.2,0,.3-.2.3-.2,0-.1,0,0-.3.1h0ZM840.5,133.1c-.5.3-.7.5-.2.3.3-.2.8-.6.7-.6-.2,0-.3.2-.5.3h0ZM797.8.3c-.3,0-1.3.1-2.2.2-20.3,1.9-39.3,12.9-51.4,29.8-6.7,9.3-11,20.1-12.6,31.4-.6,3.9-.7,5.1-.7,10.5s0,6.5.7,10.5c3.9,27,23,49.7,48.9,58.1,4.7,1.5,9.5,2.5,15.1,3.2,2.2.2,11.5.2,13.7,0,9.6-1.1,17.7-3.5,25.8-7.6,1.2-.6,1.5-.8,1.3-.9-3.9-5.2-7.8-10.4-11.7-15.7l-11.4-15.5-14.3-21.3c-4.8-7.1-9.6-14.2-14.4-21.3,0,0-.1,9.5-.1,21,0,20.2,0,21.1-.3,21.5-.2.6-.7,1-1.2,1.3-.4.2-.8.3-3,.3h-2.4l-.6-.4c-.4-.3-.7-.6-.9-1l-.3-.6v-28.2s0-28.2,0-28.2l.4-.6c.3-.3.6-.6,1-.8.6-.3.8-.3,3.2-.3s3.3.1,4,.9c5.8,8.7,11.6,17.4,17.2,26.1,9.3,14.2,22,33.5,28.2,43l11.3,17.2.6-.4c5.4-3.6,10.4-8,14.7-13,9-10.4,14.8-23.1,16.8-36.8.6-3.9.7-5.1.7-10.5s0-6.5-.7-10.5c-3.9-27-23-49.7-48.9-58.1-4.8-1.5-9.8-2.6-14.9-3.1-1.3-.1-10.6-.3-11.8-.2h0ZM827,43.8c.7.3,1.2.9,1.4,1.6.1.4.1,8.2.1,25.8v25.3s-4.5-6.8-4.5-6.8l-4.4-6.8v-18.3c0-11.9,0-18.6.1-18.9.2-.8.7-1.4,1.4-1.8.5-.3.8-.3,3-.3s2.4,0,2.9.3h0Z"/>
        <path d="M1184,82.5c-1.3.5-2.6.8-3.8.8-2,0-3.9-.3-5.5-1.1-1.6-.7-3-1.7-4.1-2.9-1.1-1.2-2-2.7-2.6-4.4s-.9-3.5-.9-5.4.3-3.8.9-5.5c.6-1.7,1.4-3.2,2.6-4.5,1.1-1.3,2.5-2.3,4.1-3,1.7-.8,3.6-1.1,5.5-1.1,1.4,0,2.7.2,4,.6,1.3.4,2.4,1,3.5,1.8s1.9,1.8,2.6,3c.7,1.2,1.1,2.6,1.2,4h-5.6c-.3-1.5-1-2.6-2-3.4-1.1-.8-2.3-1.2-3.6-1.1-1.3,0-2.4.3-3.4.8s-1.7,1.2-2.2,2c-.6.9-1,1.8-1.2,2.9s-.4,2.2-.4,3.4.1,2.2.4,3.3.7,2,1.2,2.9,1.3,1.5,2.2,2,2,.8,3.4.8c1.9,0,3.4-.5,4.5-1.5,1.1-1,1.7-2.4,1.9-4.3h-5.9v-4.4h11.2v14.4h-3.7l-.6-3c-.9,1.2-2.1,2.2-3.5,2.8h0ZM1201.3,56v21.7h13v4.9h-18.8v-26.6h5.8,0ZM1087.6,69.4c0-4.2,2.1-8.2,5.7-11.7l6.6,25.2h4.6l6.4-22.8,6.3,22.8h4.6l7.9-29h-5.1l-5.1,22.2-6.2-22.2h-4.7l-6.2,22.2-5-21.7c8.9-6.1,23.1-10.1,39.1-10.1s28.4,3.2,37.4,8.6c-9.8-9.2-27.3-15.6-47.3-15.6-30.7,0-55.5,14.3-55.5,32s24.8,32.1,55.5,32.1,37.4-6.4,47.2-15.5c-8.9,5.4-22.3,8.5-37.3,8.5-26.9,0-48.8-11.2-48.8-25.1h0ZM1142.5,66.1c-.7-1-1.6-1.8-2.7-2.3-1.2-.6-2.4-.8-3.7-.8-1.6,0-3,.3-4.2.8-1.2.5-2.2,1.3-2.9,2.3-1.5,1.9-2.2,4.5-2.2,7.6s.2,2.7.6,3.8c.4,1.1.9,2.2,1.7,3.1,1.6,1.8,3.8,2.8,6.4,2.8s2.5-.1,3.5-.4c.8-.3,1.4-.6,1.8-.9,1.1-.7,2-1.7,2.7-2.9.5-1,.8-1.9.9-2.4v-.3s-3.7,0-3.7,0v.3c-.1,1.2-1.7,3.4-4.6,3.4-4.1,0-5.1-3-5.2-5.6h13.8v-.3c0-1.5-.2-3.1-.5-4.6-.3-1.3-.9-2.5-1.6-3.6h0ZM1135.7,66.4c3.1,0,4.7,1.6,5,5h-9.9c.2-2.7,2.3-5,4.9-5h0ZM1163.7,68.9c-.3-1.1-.9-2.2-1.6-3.1-.7-.9-1.6-1.6-2.6-2.1-1.1-.5-2.3-.8-3.5-.8-1.1,0-2.2.3-3.2.8-.8.4-1.5,1-2.1,1.7v-8.9h-3.8v26.4h3.6v-1.8c.3.5.8.9,1.3,1.2,1,.7,2.3,1.1,3.7,1.1s3-.3,4.2-1.1c1.1-.6,2-1.5,2.7-2.7.7-1.1,1.1-2.3,1.4-3.5.3-1.2.4-2.4.4-3.6,0-1.3-.2-2.5-.5-3.7h0ZM1160.3,73.2c0,2.1-.4,3.8-1.2,5-.8,1.2-2.2,2-3.6,1.9-2.2,0-4.9-1.6-4.9-6s.3-3.8.8-5c.8-1.8,2.1-2.7,4-2.7s3.4.8,4.2,2.4c.6,1.4.7,3,.7,4.3h0Z"/>
        <g id="_x32_069a460dcf28295e231f3111e0426ac">
          <path d="M2155.9,70.6c-.8-5.9-2.9-11.4-6.1-16.5-2.8-4.5-6.3-8.4-10.6-11.8h0l-44.6-34.2s0,0-.1,0c-1.5-1.1-3.5-1.8-5.6-1.8s-4.2.6-5.9,1.8c-1.7,1.2-2.7,2.8-2.8,4.6,0,1.6.7,3.2,2.2,4.3,2.9,2.3,5.7,4.6,8.6,6.9,2.8,2.2,5.6,4.6,8.5,6.8h-54.6c-6.2,0-10.5,2.9-11.4,7.8-.4,2.2.3,4.5,1.8,6.3,1.6,1.9,3.9,3,6.6,3h4.2c5.8,0,11.5,0,17.3,0h5.5l-49.6,36.7h-.2c-2.8,2.3-4.6,5.2-5,8.3-.3,2.3.2,4.4,1.6,6.1,1.6,2,4,3.1,6.9,3.1s5.7-1.1,8.2-3l26.8-21.9c-.1,1.1-.2,2.6-.2,3.8,0,1.8.6,5.4,1.5,8.4,1.9,6,5.1,11.6,9.5,16.4,4.6,5.1,10.1,9.1,16.6,11.9,6.8,3,14.1,4.5,21.7,4.5h0c7.6,0,14.9-1.6,21.7-4.6,6.4-2.9,12-6.9,16.6-11.9,4.4-4.9,7.6-10.4,9.5-16.4.9-3,1.5-6.1,1.8-9.2.2-3,.1-6.1-.3-9.1h0ZM2107.1,99.6c-16.7,0-30.3-12.1-30.3-27.1s13.6-27.1,30.3-27.1,30.3,12.1,30.3,27.1-13.6,27.1-30.3,27.1ZM2124.6,70.1c.2,4.5-1.5,8.6-4.7,11.7-3.2,3.1-7.7,5.1-12.8,5.1s-9.6-2-12.8-5.1c-3.1-3.1-4.9-7.2-4.7-11.7.2-4.3,2.4-8.2,5.6-10.9,3.1-2.7,7.4-4.3,11.9-4.3s8.8,1.6,11.9,4.3c3.2,2.7,5.3,6.5,5.6,10.9Z"/>
        </g>
        <path d="M1544.1,66.9l-59.4-59.4c-1.6-1.6-3.8-2.6-6.2-2.6s-4.6,1-6.2,2.6h0l-12.3,12.3,15.6,15.6c1-.3,2.1-.5,3.3-.5,5.8,0,10.4,4.7,10.4,10.4s-.2,2.4-.6,3.5h0c0,0,15.1,15,15.1,15,1-.4,2.2-.6,3.4-.6,5.8,0,10.4,4.7,10.4,10.4s-4.7,10.4-10.4,10.4-10.4-4.7-10.4-10.4.3-2.8.8-4h0c0,0-14.1-14-14.1-14v37c3.5,1.8,5.8,5.3,5.8,9.3,0,5.8-4.7,10.4-10.4,10.4s-10.4-4.7-10.4-10.4,1.2-5.5,3-7.4h0c1-1,2.1-1.7,3.4-2.3h0v-37.4c-3.8-1.6-6.4-5.3-6.4-9.6s.3-2.8.8-4.1h0c0,0-15.4-15.4-15.4-15.4l-40.7,40.7c-1.6,1.6-2.6,3.8-2.6,6.2s1,4.6,2.6,6.2l59.4,59.4c1.6,1.6,3.8,2.6,6.2,2.6s4.6-1,6.2-2.6l59.1-59.1c1.6-1.6,2.6-3.8,2.6-6.2s-1-4.6-2.6-6.2h0Z"/>
      </g>
    </g>
  </g>
</svg>